<?xml version="1.0" encoding="utf-8"?>
<!-- Generator: Adobe Illustrator 20.1.0, SVG Export Plug-In . SVG Version: 6.00 Build 0)  -->
<svg version="1.1" xmlns="http://www.w3.org/2000/svg" xmlns:xlink="http://www.w3.org/1999/xlink" x="0px" y="0px"
	 viewBox="0 0 400 400"  xml:space="preserve">
<style type="text/css">
	.field_st0{stroke:#000000;stroke-miterlimit:10;}
	.field_st1{fill:#FFFFFF;stroke:#000000;stroke-miterlimit:10;}
	.field_st2{stroke:#000000;fill:#FFFFFF;}
	.field_st3{fill:#EA2A29;}
</style>
<g id="Layer_1">
	<path id="base_1_" class="field_st0" d="M0.5,252.5l179.9,135.2l180.3-137.7C365.1,28.2,19.9-17.2,0.5,252.5z"/>
	<path id="outfield" class="field_st1" d="M60.5,278.3l118.5-106l119.9,106l45.3-34.2c-3.5-92.7-64.8-156.2-161-161
		c-89.2,0-160.3,60.6-168,159.6L60.5,278.3z"/>
	<path id="infield" class="field_st1" d="M86.3,299.2l75.3,57.2c12.3-13.6,25.3-12.4,38.8,0l71.3-57.2l-11.9-13.9l11.9-12.5l-75.3-69
		l-16.5,12.9L165,203.7l-78.8,69l12.5,14.6L86.3,299.2z"/>
	<circle id="mound" cx="179.8" cy="287.1" r="25.9"/>
	
</g>

</svg>
