<?xml version="1.0" encoding="utf-8"?>
<!-- Generator: Adobe Illustrator 21.1.0, SVG Export Plug-In . SVG Version: 6.00 Build 0)  -->
<svg version="1.1" xmlns="http://www.w3.org/2000/svg" xmlns:xlink="http://www.w3.org/1999/xlink" x="0px" y="0px"
	 viewBox="0 0 400 400" style="enable-background:new 0 0 400 400;" xml:space="preserve">
<style type="text/css">
	.st0{fill:#050400;}
	.st1{fill:#F4F4F2;}
	.st2{fill:#FCFCFA;}
	.st3{fill:#0A00AA;stroke:#FF2A4D;stroke-miterlimit:10;}
</style>
<g id="field">
	
		<path id="base" class="st0" d="M23,255.6l179.9,135.2l180.3-137.7C387.6,31.3,42.4-14.1,23,255.6z"/>
		<path id="outfield" class="st1" d="M83,281.4l118.5-106l119.9,106l45.3-34.2c-3.5-92.7-64.8-156.2-161-161
			c-89.2,0-160.3,60.6-168,159.6L83,281.4z"/>
		<path id="infield" class="st2" d="M108.8,302.3l75.3,57.2c12.3-13.6,25.3-12.4,38.8,0l71.3-57.2l-11.9-13.9l11.9-12.5l-75.3-69
			l-16.5,12.9l-14.9-13l-78.8,69l12.5,14.6L108.8,302.3z"/>
		<circle id="mound" cx="202.3" cy="290.2" r="25.9"/>
	
</g>

	<circle id="lf_of" class="st3" cx="43.7" cy="100" r="10"/>
	<circle id="cf_of" class="st3" cx="205.7" cy="40" r="10"/>
	<circle id="rf_of" class="st3" cx="360.7" cy="100" r="10"/>
	<circle id="ss_inf" class="st3" cx="100.4" cy="183.8" r="10"/>
	<circle id="second_inf" class="st3" cx="299.6" cy="183.8" r="10"/>
	<circle id="third_inf" class="st3" cx="99.6" cy="290.2" r="10"/>
	<circle id="p_pitcher" class="st3" cx="203.6" cy="290.2" r="10"/>
	<circle id="fb_fbase" class="st3" cx="304.8" cy="290.2" r="10"/>
	<circle id="mitt_cm" class="st3" cx="203.6" cy="368.2" r="10"/>

</svg>
