<svg id="Layer_1" data-name="Layer 1" xmlns="http://www.w3.org/2000/svg" viewBox="0 0 449.6 226.82"><defs><style>.cls-1{font-size:18px;fill:#f9f9f9;font-family:Amble;pointer-events:none;}</style></defs><title>hands-size-vector1</title><g id="Layer_3" data-name="Layer 3"><g id="largeHand"><path d="M363,226.7s-0.7-28.7-4-34.5-8.4-10.5-15.7-19.7-16-19.2-17.6-21.4-3.2-7.5-4.8-10.2-9.2-11.7-11.5-14.4-4.2-9-6.3-11.4-8.5-5.3-9.5-6.8-1-7.1,4.2-8.7,17.3,1.2,24.9,8.7,11.5,15.3,16.9,17.6,9.7,2.4,12.9-3.2,4.5-16.6,4.8-23.5-0.5-26.9-1.5-34.4-0.4-19.8-.4-23.4,0.5-18.8,2.9-23.1,8.5-8.2,12.2-4.6,3,15.3,3.5,21,0.7,13.1,2.2,18.8,2.9,28.3,2.9,28.3,2.9,1.2,3.9-1-0.2-19.2,0-25.5,1.9-16.1,2.3-20.7,1.9-16.6,2.3-21.7S389.3,2.1,393.5.5s10-.3,10.5,3.7,0,17.1,0,22.7-1,17.7-.1,23.1,0.6,8,0,14.4-0.7,17-.7,17,1.1,1.3,1.3-4.2,0.7-12.7,2-16.8,1.6-3.9,2.1-10,2.3-20.7,2.7-25.6,1.5-11.4,7-12a8,8,0,0,1,8.9,5.6c0.5,2.2.5,16.4,0,22.6s-1.7,7.5-1.5,15.3-0.2,13.7-2.2,24.9-1.9,12.7-1.9,12.7,2.3,0.8,2.9-2.7a61.83,61.83,0,0,1,3.1-11.9c1.8-5.4,3.3-11.2,4.3-14.8s3-16.1,5.3-19.5,6.7-5.9,9.8-3,2.2,13.7,1.5,19.2-1.5,5.3-2.7,12.9-3.9,12.9-4.5,17-2.5,8.8-2.5,12,1.2,6.7.4,10.3-3.5,24.5-5.2,32.8-3,18.3-6.2,25.3-2.5,10.2-2.9,14.6-1.9,9.8-2.3,14.4a123.5,123.5,0,0,0-.4,13.2c0.2,3.6-.7,12.9-0.7,12.9H363v0.1h0Z" transform="translate(0.42 0.12)"/></g><g id="averageHand"><path d="M203,226.4s-0.6-25.7-3.5-30.8-7.2-9.4-13.5-17.6-13.8-17.1-15.1-19.1-2.7-6.7-4.1-9.1-7.9-10.5-9.9-12.9-3.6-8.1-5.5-10.2-7.3-4.7-8.2-6.1a5.68,5.68,0,0,1,3.6-7.7c4.5-1.4,14.9,1.1,21.5,7.7s9.9,13.7,14.5,15.8,8.3,2.1,11.1-2.9,3.9-14.9,4.1-21a270.06,270.06,0,0,0-1.3-30.8c-0.9-6.7-.3-17.8-0.3-21s0.4-16.8,2.5-20.7,7.3-7.3,10.5-4.1,2.6,13.7,3,18.8,0.6,11.7,1.9,16.8,2.5,25.3,2.5,25.3,2.5,1.1,3.3-.9-0.1-17.1,0-22.8,1.6-14.4,2-18.5,1.6-14.9,2-19.4,1.5-9.7,5.1-11.1,8.7-.3,9.1,3.3,0,15.3,0,20.3-0.6,15.6.2,20.5,0.5,7.1,0,12.9-0.6,15.2-.6,15.2,1,1.2,1.1-3.8,0.6-11.4,1.7-15,1.4-3.5,1.8-8.9,2-18.5,2.3-22.9,1.3-10.2,6.1-10.8a7.08,7.08,0,0,1,7.7,5c0.5,1.9.4,14.7,0,20.2s-1.5,6.7-1.3,13.7a101.08,101.08,0,0,1-1.9,22.3c-1.8,10-1.6,11.4-1.6,11.4s2,0.8,2.5-2.4a57,57,0,0,1,2.6-10.6c1.5-4.9,2.8-10,3.7-13.2s2.6-14.4,4.6-17.5,5.7-5.3,8.5-2.7,1.9,12.3,1.3,17.1-1.3,4.7-2.3,11.6-3.3,11.6-3.9,15.2-2.1,7.9-2.1,10.8,1,6,.3,9.2-3,21.9-4.5,29.3-2.6,16.4-5.3,22.6-2.1,9.1-2.5,13-1.6,8.8-2,12.9a97.14,97.14,0,0,0-.3,11.8c0.1,3.2-.6,11.6-0.6,11.6H203v0.2h0Z" transform="translate(0.42 0.12)"/></g><g id="smallHand"><path d="M53.1,226.4S52.6,203.6,50,199s-6.4-8.4-12-15.6-12.2-15.2-13.4-17-2.4-5.9-3.7-8.1-7-9.3-8.8-11.4-3.2-7.1-4.8-9-6.5-4.2-7.3-5.4a5.15,5.15,0,0,1,3.2-6.9c4-1.3,13.2.9,19,6.9s8.8,12.1,12.9,14,7.4,1.9,9.8-2.6,3.5-13.2,3.7-18.6A231.27,231.27,0,0,0,47.4,98c-0.8-5.9-.3-15.7-0.3-18.6s0.4-14.9,2.2-18.3,6.5-6.5,9.3-3.6,2.3,12.1,2.7,16.7S61.8,84.6,63,89.1s2.2,22.5,2.2,22.5,2.2,0.9,2.9-.8-0.1-15.2,0-20.2,1.4-12.8,1.8-16.4S71.3,61,71.7,57s1.3-8.6,4.5-9.8,7.7-.3,8,3,0,13.6,0,18-0.5,13.9.2,18.2,0.4,6.3,0,11.4-0.5,13.5-.5,13.5,0.8,1.1,1-3.4,0.6-10.1,1.5-13.3,1.2-3.1,1.6-7.9,1.8-16.4,2.1-20.3,1.2-9,5.4-9.6a6.09,6.09,0,0,1,6.8,4.4c0.4,1.7.4,13,0,17.9S101,85,101.1,91.2A89.24,89.24,0,0,1,99.4,111c-1.6,8.9-1.4,10.1-1.4,10.1s1.8,0.7,2.2-2.2a59.39,59.39,0,0,1,2.3-9.4c1.3-4.3,2.5-8.9,3.3-11.7s2.3-12.8,4.1-15.5,5.1-4.7,7.5-2.4,1.7,10.9,1.2,15.2-1.2,4.2-2.1,10.3-2.9,10.3-3.5,13.5-1.9,7-1.9,9.6,0.9,5.3.3,8.2-2.7,19.4-4,26-2.3,14.5-4.7,20.1-1.9,8.1-2.2,11.6-1.4,7.8-1.8,11.4a76.94,76.94,0,0,0-.3,10.5c0.1,2.8-.5,10.3-0.5,10.3H53.1v-0.2h0Z" transform="translate(0.42 0.12)"/></g></g><text class="cls-1" transform="translate(360.42 165.1)">LARGE</text><text class="cls-1" transform="translate(183.65 165.1)">NORMAL</text><text class="cls-1" transform="translate(41.65 165.1)">SMALL</text></svg>