<?xml version="1.0" encoding="utf-8"?>
<!-- Generator: Adobe Illustrator 22.1.0, SVG Export Plug-In . SVG Version: 6.00 Build 0)  -->
<svg version="1.1" xmlns="http://www.w3.org/2000/svg" xmlns:xlink="http://www.w3.org/1999/xlink" x="0px" y="0px"
	 viewBox="0 0 600 455.5" style="enable-background:new 0 0 600 455.5;" xml:space="preserve">
<g id="rightHand_1_">
	<path id="_x3C_Path_x3E_" d="M436.8,455.5c0,0-1.3-57.7-7.6-69.3c-6.3-11.6-15.8-21.2-29.7-39.6c-13.9-18.4-30.3-38.5-33.2-43
		s-6-15-9.1-20.5c-3.2-5.5-17.4-23.6-21.8-29c-4.4-5.5-7.9-18.1-12-22.9s-16.1-10.6-18-13.6c-1.9-3.1-1.9-14.3,7.9-17.4
		c9.8-3.1,32.8,2.4,47.1,17.4c14.2,15,21.8,30.7,31.9,35.4c10.1,4.8,18.3,4.8,24.3-6.5c6-11.2,8.6-33.4,9.1-47.2
		c0.7-13.8-0.9-54.1-2.9-69.1c-1.9-15-0.7-39.9-0.7-47.1s0.9-37.8,5.4-46.4c4.4-8.5,16.1-16.4,23.1-9.2c6.9,7.2,5.7,30.7,6.6,42.3
		c0.9,11.6,1.3,26.3,4.1,37.8c2.9,11.6,5.4,56.9,5.4,56.9s5.4,2.4,7.3-2.1c1.9-4.5-0.3-38.5,0-51.2s3.5-32.4,4.4-41.6
		c0.9-9.2,3.5-33.4,4.4-43.6c0.9-10.3,3.2-21.8,11.1-24.9c7.9-3.1,19-0.7,19.9,7.5c0.9,8.2,0,34.4,0,45.7s-1.3,35.1,0.4,46
		c1.8,10.9,1.1,16,0,29c-1.1,13-1.3,34.1-1.3,34.1s2.1,2.7,2.5-8.5c0.4-11.2,1.4-25.6,3.7-33.8c2.2-8.2,3-7.8,4-20.1
		c0.9-12.3,4.4-41.6,5.1-51.5c0.7-9.9,2.9-22.9,13.3-24.2c10.4-1.4,15.8,6.9,16.8,11.2s0.9,33,0,45.4c-0.9,12.3-3.2,15-2.9,30.7
		c0.3,15.7-0.3,27.6-4.1,50.1c-3.8,22.5-3.5,25.6-3.5,25.6s4.4,1.7,5.4-5.5c0.9-7.2,2.4-13,5.8-23.9s6.2-22.5,8.2-29.7
		c1.9-7.2,5.7-32.4,10.1-39.2c4.4-6.8,12.6-11.9,18.6-6.1c6,5.8,4.1,27.6,2.9,38.5c-1.3,10.9-2.9,10.6-5.1,26
		c-2.2,15.3-7.3,26-8.6,34.1c-1.3,8.2-4.7,17.7-4.7,24.2s2.2,13.5,0.7,20.7s-6.6,49.2-9.8,65.9s-5.7,36.8-11.7,50.8
		c-6,13.9-4.7,20.5-5.4,29.3c-0.7,8.8-3.5,19.8-4.4,29c-0.9,9.2-0.9,19.4-0.7,26.6c0.3,7.2-1.3,26-1.3,26h-111V455.5z"/>
</g>
<g id="leftHand">
	<path id="_x3C_Path_x3E__2_" d="M170.7,386.2c6.3-11.6,15.8-21.2,29.7-39.6c13.9-18.4,30.3-38.5,33.2-43c2.9-4.5,6-15,9.1-20.5
		c3.2-5.5,17.4-23.6,21.8-29c4.4-5.5,7.9-18.1,12-22.9s16.1-10.6,18-13.6c1.9-3.1,1.9-14.3-7.9-17.4c-9.8-3.1-32.8,2.4-47.1,17.4
		c-14.2,15-21.8,30.7-31.9,35.4c-10.1,4.8-18.3,4.8-24.3-6.5c-6-11.2-8.6-33.4-9.1-47.2c-0.7-13.8,0.9-54.1,2.9-69.1
		c1.9-15,0.7-39.9,0.7-47.1s-0.9-37.8-5.4-46.4c-4.4-8.5-16.1-16.4-23.1-9.2c-6.9,7.2-5.7,30.7-6.6,42.3
		c-0.9,11.6-1.3,26.3-4.1,37.8c-2.9,11.6-5.4,56.9-5.4,56.9s-5.4,2.4-7.3-2.1c-1.9-4.5,0.3-38.5,0-51.2s-3.5-32.4-4.4-41.6
		c-0.9-9.2-3.5-33.4-4.4-43.6c-0.9-10.3-3.2-21.8-11.1-24.9S87,0.6,86,8.8c-0.9,8.2,0,34.4,0,45.7s1.3,35.1-0.4,46
		c-1.8,10.9-1.1,16,0,29c1.1,13,1.3,34.1,1.3,34.1s-2.1,2.7-2.5-8.5c-0.4-11.2-1.4-25.6-3.7-33.8c-2.2-8.2-3-7.8-4-20.1
		c-0.9-12.3-4.4-41.6-5.1-51.5c-0.7-9.9-2.9-22.9-13.3-24.2C48.1,24,42.7,32.3,41.7,36.6c-1,4.4-0.9,33,0,45.4
		c0.9,12.3,3.2,15,2.9,30.7c-0.3,15.7,0.3,27.6,4.1,50.1s3.5,25.6,3.5,25.6s-4.4,1.7-5.4-5.5c-0.9-7.2-2.4-13-5.8-23.9
		c-3.4-10.9-6.2-22.5-8.2-29.7S27.2,97,22.8,90.2c-4.4-6.8-12.6-11.9-18.6-6.1c-6,5.8-4.1,27.6-2.9,38.5s2.9,10.6,5.1,26
		c2.2,15.3,7.3,26,8.6,34.1c1.3,8.2,4.7,17.7,4.7,24.2s-2.2,13.5-0.7,20.7c1.6,7.3,6.6,49.2,9.8,65.9s5.7,36.8,11.7,50.8
		c6,13.9,4.7,20.5,5.4,29.3c0.7,8.8,3.5,19.8,4.4,29c0.9,9.2,0.9,19.4,0.7,26.6c-0.3,7.2,1.3,26,1.3,26h111v0.4
		C163.2,455.5,164.4,397.7,170.7,386.2z"/>
</g>
</svg>
