<?xml version="1.0" encoding="utf-8"?>
<!-- Generator: Adobe Illustrator 19.2.1, SVG Export Plug-In . SVG Version: 6.00 Build 0)  -->
<svg version="1.1" xmlns="http://www.w3.org/2000/svg" xmlns:xlink="http://www.w3.org/1999/xlink" x="0px" y="0px"
	 viewBox="0 0 450 227.4" style="enable-background:new 0 0 450 227.4;" xml:space="preserve">
<style type="text/css">
	.st0{display:none;}
	.st1{display:inline;}
	.st2{fill:none;}
	.st3{fill:#F9F9F9;}
	.st4{font-family:'Amble-Regular';}
	.st5{font-size:18px;}
</style>
<g id="Layer_1">
	<g id="Layer_1_1_" class="st0">
		<g id="leftHand" class="st1">
			<path d="M94.7,235.8c6.3-11.6,15.8-21.2,29.7-39.6s30.3-38.5,33.2-43s6-15,9.1-20.5c3.2-5.5,17.4-23.6,21.8-29
				c4.4-5.5,7.9-18.1,12-22.9s16.1-10.6,18-13.6c1.9-3.1,1.9-14.3-7.9-17.4c-9.8-3.1-32.8,2.4-47.1,17.4
				c-14.2,15-21.8,30.7-31.9,35.4c-10.1,4.8-18.3,4.8-24.3-6.5c-6-11.2-8.6-33.4-9.1-47.2c-0.7-13.8,0.9-54.1,2.9-69.1
				c1.9-15,0.7-39.9,0.7-47.1s-0.9-37.8-5.4-46.4c-4.4-8.5-16.1-16.4-23.1-9.2c-6.9,7.2-5.7,30.7-6.6,42.3s-1.3,26.3-4.1,37.8
				c-2.9,11.6-5.4,56.9-5.4,56.9s-5.4,2.4-7.3-2.1s0.3-38.5,0-51.2s-3.5-32.4-4.4-41.6s-3.5-33.4-4.4-43.6
				c-0.9-10.3-3.2-21.8-11.1-24.9s-19-0.5-20,7.7c-0.9,8.2,0,34.4,0,45.7s1.3,35.1-0.4,46c-1.8,10.9-1.1,16,0,29s1.3,34.1,1.3,34.1
				s-2.1,2.7-2.5-8.5C8-6.5,7-20.9,4.7-29.1c-2.2-8.2-3-7.8-4-20.1c-0.9-12.3-4.4-41.6-5.1-51.5s-2.9-22.9-13.3-24.2
				c-10.2-1.5-15.6,6.8-16.6,11.1c-1,4.4-0.9,33,0,45.4c0.9,12.3,3.2,15,2.9,30.7s0.3,27.6,4.1,50.1S-23.8,38-23.8,38
				s-4.4,1.7-5.4-5.5c-0.9-7.2-2.4-13-5.8-23.9s-6.2-22.5-8.2-29.7s-5.6-32.3-10-39.1s-12.6-11.9-18.6-6.1s-4.1,27.6-2.9,38.5
				s2.9,10.6,5.1,26c2.2,15.3,7.3,26,8.6,34.1c1.3,8.2,4.7,17.7,4.7,24.2S-58.5,70-57,77.2c1.6,7.3,6.6,49.2,9.8,65.9
				s5.7,36.8,11.7,50.8c6,13.9,4.7,20.5,5.4,29.3s3.5,19.8,4.4,29c0.9,9.2,0.9,19.4,0.7,26.6c-0.3,7.2,1.3,26,1.3,26h111v0.4
				C87.2,305.1,88.4,247.3,94.7,235.8z"/>
		</g>
	</g>
	<g id="Layer_2" class="st0">
	</g>
	<g id="Layer_3">
		<g>
			<g id="largeHand">
				<path d="M363,226.7c0,0-0.7-28.7-4-34.5s-8.4-10.5-15.7-19.7c-7.4-9.2-16-19.2-17.6-21.4c-1.5-2.2-3.2-7.5-4.8-10.2
					c-1.7-2.7-9.2-11.7-11.5-14.4c-2.3-2.7-4.2-9-6.3-11.4s-8.5-5.3-9.5-6.8s-1-7.1,4.2-8.7c5.2-1.5,17.3,1.2,24.9,8.7
					c7.5,7.5,11.5,15.3,16.9,17.6c5.3,2.4,9.7,2.4,12.9-3.2c3.2-5.6,4.5-16.6,4.8-23.5c0.4-6.9-0.5-26.9-1.5-34.4
					s-0.4-19.8-0.4-23.4s0.5-18.8,2.9-23.1c2.3-4.2,8.5-8.2,12.2-4.6c3.6,3.6,3,15.3,3.5,21c0.5,5.8,0.7,13.1,2.2,18.8
					c1.5,5.8,2.9,28.3,2.9,28.3s2.9,1.2,3.9-1s-0.2-19.2,0-25.5s1.9-16.1,2.3-20.7s1.9-16.6,2.3-21.7c0.5-5.1,1.7-10.8,5.9-12.4
					c4.2-1.5,10-0.3,10.5,3.7c0.5,4.1,0,17.1,0,22.7s-1,17.7-0.1,23.1c1,5.4,0.6,8,0,14.4s-0.7,17-0.7,17s1.1,1.3,1.3-4.2
					c0.2-5.6,0.7-12.7,2-16.8c1.2-4.1,1.6-3.9,2.1-10s2.3-20.7,2.7-25.6s1.5-11.4,7-12c5.5-0.7,8.4,3.4,8.9,5.6s0.5,16.4,0,22.6
					c-0.5,6.1-1.7,7.5-1.5,15.3s-0.2,13.7-2.2,24.9s-1.9,12.7-1.9,12.7s2.3,0.8,2.9-2.7c0.5-3.6,1.3-6.5,3.1-11.9
					c1.8-5.4,3.3-11.2,4.3-14.8c1-3.6,3-16.1,5.3-19.5s6.7-5.9,9.8-3s2.2,13.7,1.5,19.2c-0.7,5.4-1.5,5.3-2.7,12.9s-3.9,12.9-4.5,17
					c-0.7,4.1-2.5,8.8-2.5,12s1.2,6.7,0.4,10.3s-3.5,24.5-5.2,32.8s-3,18.3-6.2,25.3c-3.2,6.9-2.5,10.2-2.9,14.6
					c-0.4,4.4-1.9,9.8-2.3,14.4s-0.5,9.6-0.4,13.2c0.2,3.6-0.7,12.9-0.7,12.9H363V226.7L363,226.7z"/>
			</g>
			<g id="averageHand">
				<path d="M203,226.4c0,0-0.6-25.7-3.5-30.8c-2.9-5.2-7.2-9.4-13.5-17.6c-6.3-8.2-13.8-17.1-15.1-19.1s-2.7-6.7-4.1-9.1
					c-1.5-2.4-7.9-10.5-9.9-12.9s-3.6-8.1-5.5-10.2c-1.9-2.1-7.3-4.7-8.2-6.1s-0.9-6.4,3.6-7.7c4.5-1.4,14.9,1.1,21.5,7.7
					c6.5,6.7,9.9,13.7,14.5,15.8c4.6,2.1,8.3,2.1,11.1-2.9c2.7-5,3.9-14.9,4.1-21c0.3-6.1-0.4-24.1-1.3-30.8
					c-0.9-6.7-0.3-17.8-0.3-21s0.4-16.8,2.5-20.7c2-3.8,7.3-7.3,10.5-4.1c3.1,3.2,2.6,13.7,3,18.8s0.6,11.7,1.9,16.8
					c1.3,5.2,2.5,25.3,2.5,25.3s2.5,1.1,3.3-0.9c0.9-2-0.1-17.1,0-22.8s1.6-14.4,2-18.5s1.6-14.9,2-19.4c0.4-4.6,1.5-9.7,5.1-11.1
					s8.7-0.3,9.1,3.3c0.4,3.7,0,15.3,0,20.3s-0.6,15.6,0.2,20.5s0.5,7.1,0,12.9s-0.6,15.2-0.6,15.2s1,1.2,1.1-3.8s0.6-11.4,1.7-15
					c1-3.7,1.4-3.5,1.8-8.9c0.4-5.5,2-18.5,2.3-22.9s1.3-10.2,6.1-10.8c4.7-0.6,7.2,3.1,7.7,5s0.4,14.7,0,20.2s-1.5,6.7-1.3,13.7
					c0.1,7-0.1,12.3-1.9,22.3s-1.6,11.4-1.6,11.4s2,0.8,2.5-2.4c0.4-3.2,1.1-5.8,2.6-10.6c1.5-4.9,2.8-10,3.7-13.2
					c0.9-3.2,2.6-14.4,4.6-17.5c2-3,5.7-5.3,8.5-2.7c2.7,2.6,1.9,12.3,1.3,17.1c-0.6,4.9-1.3,4.7-2.3,11.6c-1,6.8-3.3,11.6-3.9,15.2
					c-0.6,3.7-2.1,7.9-2.1,10.8s1,6,0.3,9.2c-0.7,3.2-3,21.9-4.5,29.3s-2.6,16.4-5.3,22.6c-2.7,6.2-2.1,9.1-2.5,13
					c-0.3,3.9-1.6,8.8-2,12.9c-0.4,4.1-0.4,8.6-0.3,11.8c0.1,3.2-0.6,11.6-0.6,11.6H203V226.4L203,226.4z"/>
			</g>
			<g id="smallHand">
				<path d="M53.1,226.4c0,0-0.5-22.8-3.1-27.4c-2.5-4.6-6.4-8.4-12-15.6c-5.6-7.3-12.2-15.2-13.4-17c-1.2-1.8-2.4-5.9-3.7-8.1
					c-1.3-2.2-7-9.3-8.8-11.4c-1.8-2.2-3.2-7.1-4.8-9s-6.5-4.2-7.3-5.4s-0.8-5.6,3.2-6.9s13.2,0.9,19,6.9c5.7,5.9,8.8,12.1,12.9,14
					s7.4,1.9,9.8-2.6c2.4-4.4,3.5-13.2,3.7-18.6c0.3-5.4-0.4-21.4-1.2-27.3c-0.8-5.9-0.3-15.7-0.3-18.6c0-2.8,0.4-14.9,2.2-18.3
					c1.8-3.4,6.5-6.5,9.3-3.6c2.8,2.8,2.3,12.1,2.7,16.7s0.5,10.4,1.7,14.9c1.2,4.6,2.2,22.5,2.2,22.5s2.2,0.9,2.9-0.8
					c0.8-1.8-0.1-15.2,0-20.2s1.4-12.8,1.8-16.4S71.3,61,71.7,57c0.4-4.1,1.3-8.6,4.5-9.8c3.2-1.2,7.7-0.3,8,3c0.4,3.2,0,13.6,0,18
					c0,4.5-0.5,13.9,0.2,18.2s0.4,6.3,0,11.4s-0.5,13.5-0.5,13.5s0.8,1.1,1-3.4c0.2-4.4,0.6-10.1,1.5-13.3c0.9-3.2,1.2-3.1,1.6-7.9
					c0.4-4.9,1.8-16.4,2.1-20.3c0.3-3.9,1.2-9,5.4-9.6c4.2-0.6,6.4,2.7,6.8,4.4s0.4,13,0,17.9s-1.3,5.9-1.2,12.1s-0.1,10.9-1.7,19.8
					S98,121.1,98,121.1s1.8,0.7,2.2-2.2c0.4-2.8,1-5.1,2.3-9.4s2.5-8.9,3.3-11.7c0.8-2.8,2.3-12.8,4.1-15.5c1.8-2.7,5.1-4.7,7.5-2.4
					c2.4,2.3,1.7,10.9,1.2,15.2c-0.5,4.3-1.2,4.2-2.1,10.3c-0.9,6-2.9,10.3-3.5,13.5c-0.5,3.2-1.9,7-1.9,9.6c0,2.6,0.9,5.3,0.3,8.2
					s-2.7,19.4-4,26s-2.3,14.5-4.7,20.1c-2.4,5.5-1.9,8.1-2.2,11.6c-0.3,3.5-1.4,7.8-1.8,11.4s-0.4,7.7-0.3,10.5s-0.5,10.3-0.5,10.3
					H53.1V226.4L53.1,226.4z"/>
			</g>
		</g>
	</g>
</g>
<g id="Layer_2_1_">
	<rect x="360" y="152.7" class="st2" width="56" height="16.7"/>
	<text transform="matrix(1 0 0 1 360 164.9782)" class="st3 st4 st5">LARGE</text>
	<rect x="183.2" y="152.7" class="st2" width="74.7" height="16.7"/>
	<text transform="matrix(1 0 0 1 183.2331 164.9782)" class="st3 st4 st5">NORMAL</text>
	<rect x="41.2" y="152.7" class="st2" width="57.4" height="16.7"/>
	<text transform="matrix(1 0 0 1 41.2331 164.9782)" class="st3 st4 st5">SMALL</text>
</g>
</svg>
