<?xml version="1.0" encoding="utf-8"?>
<!-- Generator: Adobe Illustrator 22.1.0, SVG Export Plug-In . SVG Version: 6.00 Build 0)  -->
<svg version="1.1" id="Layer_1" xmlns="http://www.w3.org/2000/svg" xmlns:xlink="http://www.w3.org/1999/xlink" x="0px" y="0px"
	 viewBox="0 0 500 346.2" style="enable-background:new 0 0 500 346.2;" xml:space="preserve">
<g id="rightHand">
	<path d="M364,346.1c0,0-1.1-43.8-6.3-52.6c-5.2-8.8-13.2-16.1-24.7-30.1c-11.6-14-25.2-29.2-27.7-32.7c-2.4-3.4-5-11.4-7.6-15.6
		c-2.7-4.2-14.5-17.9-18.2-22c-3.7-4.2-6.6-13.7-10-17.4c-3.4-3.6-13.4-8.1-15-10.3c-1.6-2.4-1.6-10.9,6.6-13.2
		c8.2-2.4,27.3,1.8,39.2,13.2c11.8,11.4,18.2,23.3,26.6,26.9c8.4,3.6,15.2,3.6,20.2-4.9c5-8.5,7.2-25.4,7.6-35.8
		c0.6-10.5-0.7-41.1-2.4-52.5c-1.6-11.4-0.6-30.3-0.6-35.8s0.7-28.7,4.5-35.2c3.7-6.5,13.4-12.5,19.2-7c5.7,5.5,4.7,23.3,5.5,32.1
		c0.7,8.8,1.1,20,3.4,28.7c2.4,8.8,4.5,43.2,4.5,43.2s4.5,1.8,6.1-1.6c1.6-3.4-0.2-29.2,0-38.9s2.9-24.6,3.7-31.6s2.9-25.4,3.7-33.1
		C403,12.1,405,3.3,411.5,1s15.8-0.5,16.6,5.7c0.7,6.2,0,26.1,0,34.7s-1.1,26.7,0.3,34.9c1.5,8.3,0.9,12.2,0,22
		c-0.9,9.9-1.1,25.9-1.1,25.9s1.7,2.1,2.1-6.5c0.3-8.5,1.2-19.4,3.1-25.7c1.8-6.2,2.5-5.9,3.3-15.3c0.7-9.3,3.7-31.6,4.2-39.1
		c0.6-7.5,2.4-17.4,11.1-18.4c8.7-1.1,13.2,5.2,14,8.5c0.8,3.3,0.8,25.1,0,34.5c-0.7,9.3-2.7,11.4-2.4,23.3
		c0.2,11.9-0.3,21-3.4,38.1s-2.9,19.4-2.9,19.4s3.7,1.3,4.5-4.2c0.8-5.5,2-9.9,4.8-18.2c2.8-8.3,5.2-17.1,6.8-22.6
		c1.6-5.5,4.7-24.6,8.4-29.8c3.7-5.2,10.5-9,15.5-4.6c5,4.4,3.4,21,2.4,29.2c-1.1,8.3-2.4,8.1-4.2,19.7c-1.8,11.6-6.1,19.7-7.2,25.9
		c-1.1,6.2-3.9,13.4-3.9,18.4s1.8,10.3,0.6,15.7c-1.2,5.5-5.5,37.4-8.2,50.1c-2.7,12.7-4.7,28-9.7,38.6c-5,10.6-3.9,15.6-4.5,22.3
		c-0.6,6.7-2.9,15-3.7,22c-0.8,7-0.8,14.7-0.6,20.2c0.2,5.5-1.1,19.7-1.1,19.7H364L364,346.1L364,346.1z"/>
</g>
<g id="leftHand">
	<path d="M142.2,293.5c5.2-8.8,13.2-16.1,24.7-30.1c11.6-14,25.2-29.2,27.7-32.7s5-11.4,7.6-15.6c2.7-4.2,14.5-17.9,18.2-22
		c3.7-4.2,6.6-13.7,10-17.4c3.4-3.6,13.4-8.1,15-10.3c1.6-2.4,1.6-10.9-6.6-13.2c-8.2-2.4-27.3,1.8-39.2,13.2
		c-11.8,11.4-18.2,23.3-26.6,26.9c-8.4,3.6-15.2,3.6-20.2-4.9c-5-8.5-7.2-25.4-7.6-35.8c-0.6-10.5,0.7-41.1,2.4-52.5
		c1.6-11.4,0.6-30.3,0.6-35.8s-0.7-28.7-4.5-35.2c-3.7-6.5-13.4-12.5-19.2-7c-5.7,5.5-4.7,23.3-5.5,32.1c-0.7,8.8-1.1,20-3.4,28.7
		c-2.4,8.8-4.5,43.2-4.5,43.2s-4.5,1.8-6.1-1.6c-1.6-3.4,0.2-29.2,0-38.9S102,60,101.2,53s-2.9-25.4-3.7-33.1
		C96.8,12.1,94.9,3.3,88.3,1S72.5,0.6,71.6,6.8c-0.7,6.2,0,26.1,0,34.7s1.1,26.7-0.3,34.9c-1.5,8.3-0.9,12.2,0,22
		c0.9,9.9,1.1,25.9,1.1,25.9s-1.7,2.1-2.1-6.5s-1.2-19.4-3.1-25.7c-1.8-6.2-2.5-5.9-3.3-15.3c-0.7-9.3-3.7-31.6-4.2-39.1
		s-2.4-17.4-11.1-18.4c-8.5-1.1-13,5.2-13.8,8.4c-0.8,3.3-0.7,25.1,0,34.5c0.7,9.3,2.7,11.4,2.4,23.3s0.2,21,3.4,38.1
		c3.2,17.1,2.9,19.4,2.9,19.4s-3.7,1.3-4.5-4.2c-0.7-5.5-2-9.9-4.8-18.2s-5.2-17.1-6.8-22.6c-1.7-5.5-4.7-24.5-8.3-29.7
		c-3.7-5.2-10.5-9-15.5-4.6c-5,4.4-3.4,21-2.4,29.2s2.4,8.1,4.2,19.7c1.8,11.6,6.1,19.7,7.2,25.9c1.1,6.2,3.9,13.4,3.9,18.4
		s-1.8,10.3-0.6,15.7c1.3,5.5,5.5,37.4,8.2,50.1c2.7,12.7,4.7,28,9.7,38.6c5,10.6,3.9,15.6,4.5,22.3c0.6,6.7,2.9,15,3.7,22
		c0.7,7,0.7,14.7,0.6,20.2c-0.2,5.5,1.1,19.7,1.1,19.7H136v0.3C136,346.1,137,302.2,142.2,293.5z"/>
</g>
</svg>
