<?xml version="1.0" encoding="utf-8"?>
<!-- Generator: Adobe Illustrator 19.2.1, SVG Export Plug-In . SVG Version: 6.00 Build 0)  -->
<svg version="1.1" xmlns="http://www.w3.org/2000/svg" xmlns:xlink="http://www.w3.org/1999/xlink" x="0px" y="0px"
	 viewBox="0 0 466 356" enable-background="new 0 0 466 356" xml:space="preserve">
<g id="Layer_2" display="none">
	<rect display="inline" fill="#33C500" width="466" height="359"/>
</g>
<g id="cap_x5F_vw2_x5F_pnl2">
	<path fill="none" d="M177,22c0,0,60,5,110.5,82.5c0,0,20.8,5.5,27.5,146c0,0,20.5-11,23.5-30c0,0-2-10-2-24.5s0.5-70.5-6.5-94.5
		s-18.5-60-83-75.5C247,26,186,14.5,177,22z"/>
</g>
<g id="cap_x5F_vw2_x5F_pnl1_1_">
	<path fill="#1300B5" d="M164,24.5c0,0-16,13.5-20,56c-3,31.6-11,113.5-11,117.5s-2.5,82-2.5,82S259,284,315,250
		c0,0-4.5-85-15-119.5s-65.5-101-122.5-109L164,24.5z"/>
</g>
<g id="cap_x5F_vw2_x5F_pnl5">
	<path fill="#010105" d="M151.8,21.5c0,0-77,13.5-131.8,83.8c-1.9,3.8-8.6,47.2-7.5,55.2c0,0-10.8-50,16.5-87.2
		C70.5,23.2,131.8,23.8,151.8,21.5z"/>
	<path fill="#010105" d="M211,91.8"/>
</g>
<g id="cap_x5F_vw2_x5F_pnl6">
	<path fill="#B62B00" d="M162.5,24c0,0-50.5-6.5-81.5,17.5c0,0-18,3-29,20l-31.3,43.3c0,0-6.8,4.3-7.8,49.3c0,0-4,33.5,0.5,72
		s64.5,50.5,76,52s41,2,41,2c1.5-8.8,1.3-26.3,2.1-48.3c0.8-22.3,4.9-69.8,6.4-96.7c3.8-65,5.3-83,29-111.8L162.5,24z"/>
</g>
<g id="cap_x5F_vw2_x5F_bill">
	<g>
		<path fill="none" d="M337.5,196.5c0,0,52,20.5,73.5,32.5s50.5,32,37.5,51s-59.5,43-111,51.5S196,331,157,315s-46.1-19.7-69.8-37.3
			c0,0,137.3,12.3,218.8-21.7C306,256,347,240.5,337.5,196.5z"/>
		<path fill="none" d="M352.5,248.5c32.4,2.1,61.5,17.1,59.5,31.5c0,0-3.6,29.2-78.5,8.5c-8.2-2.3-30.5-20-12.5-32
			S352.5,248.5,352.5,248.5z"/>
	</g>
</g>
<g id="cap_x5F_vw2_x5F_stch">
	<path fill="none" stroke="#000000" stroke-miterlimit="10" stroke-dasharray="8,2" d="M139,269c1.1,2.3,132,1.5,168-24.3
		c0,0,0-97.2-16.5-123.2s-49.4-79.8-115-94c0,0-14,12.5-18.5,46s-7.5,54.5-7.5,54.5l-6,68.5L139,269z"/>
	<path fill="none" stroke="#000000" stroke-miterlimit="10" stroke-dasharray="8,2" d="M136,269.8c0,0-93,9.2-112-25.3
		c0,0-10.5-29.5-8-61S25,113,27.5,108s20.5-20,27-35.5s32-35,54.5-41.5s44-6,44-6s-17.5,22.5-21,57.5s-7.5,78-7.5,78
		s-8.2,75.2-5.5,109.3"/>
	<path fill="none" stroke="#000000" stroke-miterlimit="10" stroke-dasharray="8,2" d="M195,22c0,0,30.3,9.6,54.7,28.7
		c36.8,28.8,48.7,52,48.7,52s7.7,8.7,15.8,52l2.8,86.7c0,0,22.9-9.4,21.7-27.1c0,0,55.7,11,53,43.7"/>
	<path fill="none" stroke="#000000" stroke-miterlimit="10" stroke-dasharray="8,2" d="M314.2,278c0,0-60.5,8-81.2,0"/>
	<path fill="none" stroke="#000000" stroke-miterlimit="10" stroke-dasharray="8,2" d="M319,281.6c0,0-46,13.3-104-1.8"/>
	<path fill="none" stroke="#000000" stroke-miterlimit="10" stroke-dasharray="8,2" d="M325.7,287c-80.7,12.4-95.4-1.5-130.7-7.2"/>
	<path fill="none" stroke="#000000" stroke-miterlimit="10" stroke-dasharray="8,2" d="M181.7,281.6c0,0,102.3,30.8,151.8,6.9"/>
	<path fill="none" stroke="#000000" stroke-miterlimit="10" stroke-dasharray="8,2" d="M163,283.4c0,0,98.7,40.5,187.3,9.2"/>
	<path fill="none" stroke="#000000" stroke-miterlimit="10" stroke-dasharray="8,2" d="M144.3,281.6c0,0,117.3,56.3,216,14.4"/>
	<path fill="none" stroke="#000000" stroke-miterlimit="10" stroke-dasharray="8,2" d="M129.7,281.6c0,0,121.3,66.2,244.7,16"/>
	<path fill="none" stroke="#000000" stroke-miterlimit="10" stroke-dasharray="8,2" d="M113.7,281.6c0,0,132,82.9,290.7,12.4
		c1,4.3,64.7-29.1,7.8-62.2"/>
	<path fill="none" stroke="#000000" stroke-miterlimit="10" stroke-dasharray="8,2" d="M412,280c0,0,60.3-32.1-73.3-78.6"/>
	<path fill="none" stroke="#000000" stroke-miterlimit="10" stroke-dasharray="8,2" d="M410,271.9c0,0,31-33.7-71.3-67.2"/>
	<path fill="none" stroke="#000000" stroke-miterlimit="10" stroke-dasharray="8,2" d="M341.7,209.3c78.7,22.3,59.1,53.7,59.1,53.7"
		/>
	<path fill="none" stroke="#000000" stroke-miterlimit="10" stroke-dasharray="8,2" d="M391.7,258"/>
	<path fill="none" stroke="#000000" stroke-miterlimit="10" stroke-dasharray="8,2" d="M341.7,220.7c0,0,26.6,9.5,30.6,30.8"/>
	<path fill="none" stroke="#000000" stroke-miterlimit="10" stroke-dasharray="8,2" d="M382.2,254.2c0,0-9.7-27.7-38-38.7"/>
</g>
<g id="cap_x5F_vw2_x5F_pin">
	<path fill="none" d="M176,21.5l-1.7-9.5c0,0-12.6-3.8-22.3,2.8l-0.3,8.5C151.8,23.3,165.7,24,176,21.5z"/>
</g>
<g id="cap_x5F_vw2_x5F_eye">
	<path fill="#2102A3" stroke="#000000" stroke-miterlimit="10" d="M293.4,62c0,0-5.1,8,13.6,15.3c0,0,9.8,0-7.1-12.7L293.4,62z"/>
	<g>
		<path fill="#2102A3" d="M215,91.8c0,0,14.7,7.6,10.7,16.9s-14.7,4-14.7,4s-9.3-8.4-4.7-14.7C211,91.8,215,91.8,215,91.8z"/>
		<path fill="none" d="M213.5,99.5c0,0,0,7,3.5,9.5s0-9.5,0-9.5S215.5,98.8,213.5,99.5z"/>
	</g>
	<g>
		<path fill="#2102A3" d="M84.3,77.3c0,0,14.7,14.4-10.6,18C73.7,95.3,59.7,77.3,84.3,77.3z"/>
		<path fill="none" d="M77.5,82.5c0,0,5.5,0.2,4,3.8c-1.5,3.7-4,2.9-4,2.9S76,84,77.5,82.5z"/>
	</g>
</g>
<g id="cap_x5F_vw2_x5F_cap">
	<image overflow="visible" width="466" height="356" xlink:href="baseball_cap_2.png" >
	</image>
</g>
</svg>
