<?xml version="1.0" encoding="utf-8"?>
<!-- Generator: Adobe Illustrator 19.2.1, SVG Export Plug-In . SVG Version: 6.00 Build 0)  -->
<svg version="1.1" id="Layer_1" xmlns="http://www.w3.org/2000/svg" xmlns:xlink="http://www.w3.org/1999/xlink" x="0px" y="0px"
	 viewBox="0 0 375 352.4" enable-background="new 0 0 375 352.4" xml:space="preserve">
<g id="catcher-mitt_x5F_vw3_x5F_utoe">
	<path d="M22.3,204.6c0,0,0-32.6,4.5-55s14.8-46.4,14.8-46.4S59.5,71.8,70,64.5s22.6-18.6,42.7-24.3s39.7-14.1,47.4-16.1
		s11.3-3,11.3-3s1.5-1.3,8.3-2c6.8-0.8,19.1-6,31.9-7.3c12.8-1.3,16.8,3,16.8,3s11.3,11,8,20.3s-17.8,37.4-18.8,50.5
		s4.5,38.4,7.8,45.2s15.1,36.1,29.6,43.4c14.6,7.3,30.9,20.8,49.7,18.3c0,0,20.3-13.1,28.6-21.1c8.3-8,11.8-7.3,11.8-7.3l-2,6.8
		c0,0-16.1,18.1-31.6,28.6c-15.6,10.5-8.6,5.9-12.8,8.7c-4.3,2.8-28.8,12.5-40.3,11c-14.1,0.8-39-26.8-47.5-42.3
		c-41.7-76.4,1.3-134.2-48-120.9c-20.8,9.5-26.3,20.3-27,41c0,0,1-29.3-21.3-23.5c-19.7,5.1-22.9,46.1-22.9,46.1
		c-2.6-12.4-13.6-18.7-26.1-12.1c-58.8,31-16,155.8-16,155.8L22.3,204.6z"/>
</g>
<g id="catcher-mitt_x5F_vw3_x5F_thb">
	<path d="M111.6,75.1c0,0-4.4,47.2-4.4,63.3s-1,36.5,0,48.9s4.7,36.8,6,42.5s3.3,23.8,3.7,28.1l32.5-7c0,0,45.9-8.7,54.9-9.4
		c0,0,29.8,6,10.4,33.8c0,0-13.1,8.4-41.5,9.7s-69.3,2.7-69.3,2.7s7,11.7,10.7,19.1l4.6,3.5c0,0-1.8,3.1-2,7.2l-0.1,3.9
		c0,0-5.5,16.7-9,19.9l0.8,1.7l3.7,2.2c0,0,18.6,6.9,38.5,5s46.4-8.4,46.4-8.4s3.5-1.8,7.2-5.7c3.7-3.8,27.3-31.3,27.3-31.3
		l45.5-48.5l14.7-16.4l35.8-42.7l7.4-11l6.4-8.9c0,0,5.7-4.5,3.3-10.4c0,0-12.4,15.9-20.4,22.4s-17.2,13.1-17.2,13.1
		c0.1,8.5-19.7,11.5-19.7,11.5c-21.8,11.3-48.4,13.3-75.8-37c-2.8-0.2-21.8-53.6-20.9-82c-1.2-21.8-1.2-26.4-1.2-26.4
		c-1.2-6.2-4.2-21.1-30.3-10.9c-20.7,10-23.3,21.3-23.3,44.2C135.5,76.3,126,68,111.6,75.1z"/>
</g>
<g id="catcher-mitt_x5F_vw3_x5F_bfg">
	<path d="M56,283.9l-18.1-60.2c0,0-12-48.2,0-74c2.9-19.3,12-33.5,27.9-42.2c14.8-7,25.6,1.5,26.6,11.5c0,0,2-41.7,19.3-43.7
		l-4.3,58.5c0,0-1.5,35.1,0.3,57.2s3.3,25.6,5,35.6c1.8,10,4.8,28.4,4.5,32.1c0,0-27.9,3.3-22.6,17.1c5.3,13.8,17.3,35.9,17.3,35.9
		s6,6,3,14.1c-3,8-1.8,14.1-6.8,15.6s-15.8,0-15.8,0s-10.8-24.6-14.8-34.9C73.5,296.2,56,283.9,56,283.9z"/>
</g>
<g id="catcher-mitt_x5F_vw3_x5F_web">
	<path d="M230.4,73.5h2.8l-2.8,11.8l6,1.5l11.4,1l29.8,26.9l34,33l16.7,17.1c0,0,5.4-1.2,13.9-15.5s11.5-21.1,11.5-21.1l12.6-7
		l6.5-6.3c0,0,1.3-2,0-4.8s-4.5-10-4.5-10l-3-10l-5-9.5l-8-9.8L337,56.2l-13.1-11.5l-12.3-9.3L297,26.6l-17.1-8.3l-10-3l-20.3-6
		L239.2,6l-5,3.3l-2.5,8c15.5,1.4,15.8,13.8,15.4,19.1l-3.6,10c0,0-2.3,6.8-4.8,11S230.4,73.5,230.4,73.5z"/>
</g>
<g id="catcher-mitt_x5F_vw3_x5F_plm">
	<path d="M252,86.3l-13.6-10l-8.3,10l-7,18.8l-1.3,5.3c0,0-2,16.3,6,30.1s23.6,33.1,27.9,35.6s21.3,13.6,32.4,15.6
		c11,2,19.6,0,19.6,0v-3.5c0,0,11.2-9.4,17.6-16.3l4.3-5.8c0,0,1.3-1,0-2.8s-11.8-14.6-11.8-14.6l-32.4-33.1L252,86.3z"/>
</g>
<g id="catcher-mitt_x5F_vw3_x5F_lin">
	<path d="M102.2,283.4c0,0,17.8-2.8,42.9-3s46.2-2.6,46.2-2.6s9.3-2.8,16.3-5.1c14.8-5,9.9-29-6.8-27.9c0,0-19.6,12.6-45.1,8.3
		c0,0-6.1,2-21.2,6c-15.1,4-20.8,5-20.8,5l-7.3,1.5c0,0-10.8,3-8.5,9.5L102.2,283.4z"/>
</g>

<g id="catcher-mitt_x5F_vw3_x5F_bnd">
	<g>
		<path d="M111.1,319.4c0.3,7.8-8.2,23-18.2,20.7c0,0,7,5.3,14.6,3.8c0,0,18.8,9,42.9,7.8c24.1-1.3,37.1-4.5,37.1-4.5
			s13.6-5.3,17.1-11.3c-6.8,7.5-67.5,19.8-93.4,6l3.5-6c5.9-7.8,4.9-16.1,0.7-27.1l-1-2c-1.6-5.2-4.5-10.7-8.5-16.6
			c2.9-0.7,57.9-2.3,58-2.3c25.3-1.3,40.7-1.5,52.7-10.2c19.6-10.9,6.9-38.2-10.5-38.5c-18.6,11.5-33.6,14.1-66.8,10.8l-39.4,8.5
			c-16.6,10.5-7,24.1-7,24.1s14.8,25.5,16.8,33.6L111.1,319.4z M202.2,273.8c0,0-23.4,6.7-57.1,5.6c-0.3-0.9-43.4,1.7-42.9,3
			l-4.3-7.3c-2.3-6.5,8.5-9.5,8.5-9.5l7.3-1.5c0,0,5.8-1,20.8-5c15.1-4,21.2-6,21.2-6c25.5,4.3,45.1-8.3,45.1-8.3
			C221.2,244.7,221.5,269.5,202.2,273.8z"/>
		<path d="M25.1,195.3v8.7l-3,2.7l-1.3-2.2L20,203C19.9,203,23.8,195.4,25.1,195.3z"/>
		<path d="M26.6,171.7c0,0-1.3,11.2-1.5,13.1l-5.2,5.7V178L26.6,171.7z"/>
		<path d="M23.3,153.9c0,0,5-5.9,6.4-6.9c0,0-3.2,14.1-2,15.4l-5.1,3.7L23.3,153.9z"/>
		<path d="M29.6,129.2c0,0-3.7,9.2-3,11l4.5-2.3c0,0,2.8-10.4,5.4-14.9C36.5,123,34.1,122.5,29.6,129.2z"/>
		<path d="M46.7,100.4c0,0-4,0-6.7,3.5s-4.9,10-4.9,10l4.5-0.7C39.7,113.3,45.2,102.2,46.7,100.4z"/>
		<path d="M54.6,80.5c0,0-7.7,8.2-7.9,11.5h4.7c0,0,4.5-11.5,10.2-13.6L54.6,80.5z"/>
		<path d="M71.5,62.4c0,0-7.2,5.2-8.5,8h4.3c0,0,5.9-6.7,9.5-8H71.5z"/>
		<path d="M97.1,49c0,0-11,4.4-13.4,7.4l-4.2-1.5c0,0,10.9-7.4,14.6-7.5C97.7,47.2,97.1,49,97.1,49z"/>
		<path d="M102.9,42.8c0,0,9.9-4,11.2-4c1.3,0,4.5,0,4.5,0L105,44.5L102.9,42.8z"/>
		<path d="M212.3,11.5c0,0,8.9,0.3,10.2,4.9l3.3-3.3C225.9,13.1,221.9,9,212.3,11.5z"/>
		<path d="M228.4,19.7c0,0,2.3,0.5,2.3,3.7l13.7,1.2c0,0-5.9-7.5-13.6-7.5L228.4,19.7z"/>
		<path d="M230.4,35.6l-2,4.9c0,0,8.8,2.5,10.7,3.8l2.9-6.9C242,37.4,237.3,32.5,230.4,35.6z"/>
		<path d="M224.9,50.4l-4.4,8.9c0,0,7-1.2,9.7,0l3.3-6.5C233.5,52.7,229.3,49.4,224.9,50.4z"/>
		<path d="M227,67.6l-1.8,4.9H224l-1.7,5l-6.7,2.2l3-11.4C218.7,68.3,222.3,66.4,227,67.6z"/>
		<path d="M224.1,114.8l-1.5,5c0,0-0.5,2-3.5,0l-1.7,0.9c0,0,0.2,9.6,2.3,11.8l6-7.4C225.7,125.2,224.9,116.3,224.1,114.8z"/>
		<path d="M225.7,142.7c0,0,5.2,10.2,6.9,11.5l3.7-5.8c0,0,0.2-3.1,0-4.3s0.2,1.2,0.2,1.2s-7-6.9-6.2-9.9L225.7,142.7z"/>
		<path d="M239,162.5c0,0,12,13.6,15.1,14.9l6-4.5c0,0-12.4-10-17.2-16.9L239,162.5z"/>
		<path d="M267.7,178.9l12.6,4l-4.9,5.9c0,0-11.4-3.5-13.6-4.9L267.7,178.9z"/>
		<path d="M289.7,187.2c0,0,9.7,1.7,16.6,1.5l4.5-3.3c0,0,1.8,2.3,0,6c0,0-14.2,7.7-26.8,1.2C284,192.6,284.8,188.9,289.7,187.2z"/>
		<path d="M333,166.7c0,0,0,6.9-3,10.7s-6.5,6.4-6.5,6.4s3-6.6,1.8-10l2.2-3.5C327.5,170.3,330.8,169.3,333,166.7z"/>
		<path d="M350.6,136.2c0,0-2.3,5-3,6.2c0,0,2.5,8.7,3,11.9l2.8-5.4C352.8,144.1,354.8,143.1,350.6,136.2z"/>
		<path d="M74.3,298.9c0,0-5.2-6.4-9-7.9l-5,1.5l10.2,7l4.9,4.4v-4.2L74.3,298.9z"/>
	</g>
</g>
<g id="catcher-mitt_x5F_vw3_x5F_fpad">
	<path d="M139.4,149.1c0,0,1.5,36.1,4.5,43s0,3.2,0,3.2l-0.8,1c0,0-5.5,40.7-5.5,52.4c28.8,9,59.6,3.5,67.9-10c0,0,2.2-3.2,5.2-2.8
		c0,0-6.2-43.3-11.5-57.4S187,146.9,184.8,137C167.4,134.7,152,138.1,139.4,149.1z"/>
</g>
<g id="catcher-mitt_x5F_vw3_x5F_stch">
	<g>
		<g>
			<g>
				<line fill="none"  stroke-width="0.75" stroke-miterlimit="10" x1="37.8" y1="214.5" x2="37.6" y2="210.5"/>
				<path fill="none"  stroke-width="0.75" stroke-miterlimit="10" stroke-dasharray="8.0555,2.0139" d="
					M37.5,208.5L36,176.2c0,0,2.3-20.7,4.4-31c0,0,9.2-23.8,23.2-32.5s22.8,4.6,22.8,4.6s3,5.4,3.5,22.1s0.3,41.2,1,48
					c0.7,6.9,2.3,15.6,2.3,15.6s4.2,3.9,4.9-2.3c0.7-6.2-1.5-62.9-1.7-71.6c-0.2-7.7,0.2-34.3,8.7-44.3"/>
				<path fill="none"  stroke-width="0.75" stroke-miterlimit="10" d="M105.8,84c1-1,2-1.8,3.2-2.3l-0.4,4"/>
				<path fill="none"  stroke-width="0.75" stroke-miterlimit="10" stroke-dasharray="8.24,2.06" d="M108.4,87.7
					l-2.7,28.2c0,0-2.7,37.2-2.2,45.6c0.5,8.3,1.8,45.1,5.5,59.7c2.7,10.7,3.8,22.7,4,29.5"/>
				<path fill="none"  stroke-width="0.75" stroke-miterlimit="10" d="M113,251.7c0,2,0,3.4-0.2,4
					c0,0-1.6,0.1-4,0.5"/>
				<path fill="none"  stroke-width="0.75" stroke-miterlimit="10" stroke-dasharray="8.3085,2.0771" d="
					M106.8,256.6c-5.8,1.2-14,3.8-15.8,9.6l-0.1,0.4"/>
				<line fill="none"  stroke-width="0.75" stroke-miterlimit="10" x1="90.5" y1="267.6" x2="89.3" y2="271.4"/>
			</g>
		</g>
		<g>
			<g>
				<path fill="none"  stroke-width="0.75" stroke-miterlimit="10" d="M110.4,78c0,0-1.3,0.5-3.2,2.3"/>
				<path fill="none"  stroke-width="0.75" stroke-miterlimit="10" stroke-dasharray="8.0798,2.0199" d="
					M105.8,81.8c-3.9,4.4-9.2,13.5-11.3,31.7v15.7l1.5,42.7l1.2,27.3c0,0-3.5,6.7-4-1.2s-1.7-44.3-1.7-44.3s3.2-38.5-9.4-44.4
					c-11.9-5.6-26.7,0.6-38.8,26.1"/>
				<path fill="none"  stroke-width="0.75" stroke-miterlimit="10" d="M42.9,136.3c-0.5,1.2-1.1,2.4-1.6,3.7"/>
			</g>
		</g>
		<g>
			<g>
				<path fill="none"  stroke-width="0.75" stroke-miterlimit="10" d="M116.8,80.1c0,0-0.6,1.2-1.4,3.7"/>
				<path fill="none"  stroke-width="0.75" stroke-miterlimit="10" stroke-dasharray="8.1837,2.0459" d="
					M114.9,85.8c-1.1,4.2-2.1,10.6-2,19.3c0.3,16.7-1.2,24.9-1.2,24.9v40.1c0,0,1.2,28.7,3.8,44.8c2.1,12.8,4.5,25,5.6,32.7"/>
				<path fill="none"  stroke-width="0.75" stroke-miterlimit="10" d="M121.2,248.6c0.2,1.5,0.4,2.9,0.5,4"/>
			</g>
		</g>
		<g>
			<g>
				<path fill="none"  stroke-width="0.75" stroke-miterlimit="10" d="M111.1,80.1c0,0,1.5-1,3.6-1.7"/>
				<path fill="none"  stroke-width="0.75" stroke-miterlimit="10" stroke-dasharray="8.067,2.0168" d="M116.7,78
					c4-0.5,9,1,11.8,10.4c5,16.9,2.2,23.3,2.2,23.3s-0.2,19.6,3.2,40.2c0,0,1.5,30.1,5.2,37.8s5.4,3.2,5.4,3.2v-39.8
					c0,0-3.8-61.9-3.5-66.4s7.5-22.3,21.3-23.9s21.4-6.7,21.9,15.4s-0.2,22.9,0.7,27.6c0.8,4.7,4,30.6,8,41.2
					c4,10.5,14.6,40,20.9,47.3c6.4,7.4,29.5,35.7,50,31.8c20.5-3.8,33.2-11.5,33.2-11.5l1.7-1"/>
				<line fill="none"  stroke-width="0.75" stroke-miterlimit="10" x1="299.5" y1="213.1" x2="303" y2="211.1"/>
			</g>
		</g>
		<g>
			<g>
				<path fill="none"  stroke-width="0.75" stroke-miterlimit="10" d="M293.8,214.4c0,0-1.3,0.7-3.6,1.8"/>
				<path fill="none"  stroke-width="0.75" stroke-miterlimit="10" stroke-dasharray="8.0316,2.0079" d="M288.4,217
					c-7.2,3.2-20.1,8.1-30.4,6.9c-15.1-1.7-28.9-16.2-28.9-16.7s-18.9-13.6-27.4-41s-12.2-42.3-12.2-42.3s-4.7-27-3.3-46.6
					c1.3-19.6-11.7-20.2-11.7-20.2s-17.1,1.7-25.9,10.7c-8.9,9-10,20.1-10,20.1l2,35.1c0,0,1.7,40.2,1.7,42.2c0,1.1,0.5,5.7,0.9,9.4
					"/>
				<path fill="none"  stroke-width="0.75" stroke-miterlimit="10" d="M143.3,175.6c0.3,2.3,0.5,4,0.5,4"/>
			</g>
		</g>
		<g>
			<g>
				<path fill="none"  stroke-width="0.75" stroke-miterlimit="10" d="M138.4,182.4c0,0-0.1-1.5-0.4-4"/>
				<path fill="none"  stroke-width="0.75" stroke-miterlimit="10" stroke-dasharray="7.8459,1.9615" d="
					M137.9,176.5c-0.8-9.3-2.4-26.7-3-32.9c-0.8-8.5-2.3-29.6-2.3-29.6l0.7-12.9c0,0,0-23.9-14-25.1"/>
				<path fill="none"  stroke-width="0.75" stroke-miterlimit="10" d="M118.4,76c-1.2,0-2.5,0.2-4,0.5"/>
			</g>
		</g>
		<g>
			<g>
				<line fill="none"  stroke-width="0.75" stroke-miterlimit="10" x1="121.8" y1="254" x2="125.7" y2="253.1"/>
				
					<line fill="none"  stroke-width="0.75" stroke-miterlimit="10" stroke-dasharray="6.9241,1.731" x1="127.4" y1="252.7" x2="135" y2="250.9"/>
				<path fill="none"  stroke-width="0.75" stroke-miterlimit="10" d="M135.8,250.7l3.9-0.9c0,0,0.2-1.5,0.4-4"/>
				<path fill="none"  stroke-width="0.75" stroke-miterlimit="10" stroke-dasharray="7.2527,1.8132" d="M140.3,244
					c0.9-9,2.7-26.4,3.1-35.2"/>
				<path fill="none"  stroke-width="0.75" stroke-miterlimit="10" d="M143.5,207.9c0.1-1.9,0.1-3.3,0-4"/>
			</g>
		</g>
		<g>
			<g>
				<path fill="none"  stroke-width="0.75" stroke-miterlimit="10" d="M205.1,230.4c0,1.4,0,2.7-0.1,4h2
					c0,0,0-1.5-0.1-4"/>
				<path fill="none"  stroke-width="0.75" stroke-miterlimit="10" stroke-dasharray="7.7904,1.9476" d="
					M206.8,228.5c-0.4-8-1.8-22.4-6-33.6c-6.2-16.2-9-24.3-9-24.3s-5.9-16.2-8.2-25.2"/>
				<path fill="none"  stroke-width="0.75" stroke-miterlimit="10" d="M183.3,144.4c-0.4-1.7-0.7-3.1-0.7-3.9h-2.2
					c0,0,0.4,1.5,1,3.9"/>
				<path fill="none"  stroke-width="0.75" stroke-miterlimit="10" stroke-dasharray="7.7824,1.9456" d="
					M181.9,146.2c1.7,6.2,4.7,16.4,7.7,24.4c4.3,11.3,14.8,40.6,15.5,58.8"/>
			</g>
		</g>
		<g>
			<g>
				<path fill="none"  stroke-width="0.75" stroke-miterlimit="10" d="M199.8,337.5c-0.6,0.9-1.7,1.7-3.1,2.4"/>
				<path fill="none"  stroke-width="0.75" stroke-miterlimit="10" stroke-dasharray="8.1088,2.0272" d="
					M194.8,340.8c-15.9,6.6-61.5,8.9-79.2,3.2"/>
				<path fill="none"  stroke-width="0.75" stroke-miterlimit="10" d="M114.7,343.7c-1.4-0.5-2.6-1.1-3.6-1.7"/>
			</g>
		</g>
		<g>
			<g>
				<path fill="none"  stroke-width="0.75" stroke-miterlimit="10" d="M107.4,290.5c0,0,1.5-0.2,4-0.5"/>
				<path fill="none"  stroke-width="0.75" stroke-miterlimit="10" stroke-dasharray="8.1978,2.0494" d="
					M113.4,289.8c5.5-0.5,14.1-1.2,23.5-1.3c15.7-0.2,33-0.8,33-0.8s21.1-0.7,32-3.7c40.8-10.1,22.7-38.4,10.1-43.7"/>
				<path fill="none"  stroke-width="0.75" stroke-miterlimit="10" d="M211,239.9c-1.4-0.5-2.8-0.6-3.9-0.4"/>
			</g>
		</g>
		<g>
			<g>
				<polyline fill="none"  stroke-width="0.75" stroke-miterlimit="10" points="231,107.1 228.1,104.4 230.3,101.7 
					233.2,104.4 				"/>
				<polyline fill="none"  stroke-width="0.75" stroke-miterlimit="10" stroke-dasharray="7.9407,1.9852" points="
					234.7,105.8 269.4,138.1 306.6,172.8 				"/>
				<polyline fill="none"  stroke-width="0.75" stroke-miterlimit="10" points="307.3,173.5 310.2,176.2 
					308.6,179.2 305.7,176.5 				"/>
				<polyline fill="none"  stroke-width="0.75" stroke-miterlimit="10" stroke-dasharray="7.9912,1.9978" points="
					304.2,175.1 271.3,144.4 231.8,107.8 				"/>
			</g>
		</g>
		<g>
			<g>
				<path fill="none"  stroke-width="0.75" stroke-miterlimit="10" d="M223.7,51.2c-0.1,0-1.4,1-2.6,3"/>
				<path fill="none"  stroke-width="0.75" stroke-miterlimit="10" d="M220.6,55.1c-0.5,1-1,2.3-1.3,3.8"/>
			</g>
		</g>
		<g>
			<path fill="none"  stroke-width="0.75" stroke-miterlimit="10" stroke-dasharray="7.4135" d="M216.1,71.3
				c0-0.6-1.5,6.1-1.3,7.2"/>
		</g>
		<g>
			<g>
				<path fill="none"  stroke-width="0.75" stroke-miterlimit="10" d="M216.8,121.2c0,0.1,0.3,1.8,0.8,3.9"/>
				<path fill="none"  stroke-width="0.75" stroke-miterlimit="10" d="M218.3,128.4c0.4,1.5,0.8,3,1.1,3.8"/>
			</g>
		</g>
		<g>
			<g>
				<path fill="none"  stroke-width="0.75" stroke-miterlimit="10" d="M225,142.5c-0.1,0.1,0.7,1.6,1.8,3.5"/>
				<path fill="none"  stroke-width="0.75" stroke-miterlimit="10" d="M229.5,150.6c1.2,1.9,2.1,3.4,2.1,3.4"/>
			</g>
		</g>
		<g>
			<g>
				<path fill="none"  stroke-width="0.75" stroke-miterlimit="10" d="M239.5,163.5c0,0,1.2,1.2,2.8,2.8"/>
				<path fill="none"  stroke-width="0.75" stroke-miterlimit="10" stroke-dasharray="6.8791,1.7198" d="
					M243.6,167.5c1.7,1.7,3.8,3.7,5.6,5.4"/>
				<path fill="none"  stroke-width="0.75" stroke-miterlimit="10" d="M249.7,173.5c1.2,1.2,2.3,2.1,3,2.7"/>
			</g>
		</g>
		<g>
			<g>
				<path fill="none"  stroke-width="0.75" stroke-miterlimit="10" d="M261.9,183.7c0,0,1.6,0.8,3.6,1.8"/>
				<path fill="none"  stroke-width="0.75" stroke-miterlimit="10" d="M270.4,187.8c2,0.9,3.5,1.6,3.7,1.5"/>
			</g>
		</g>
		<g>
			<path fill="none" d="M284.5,193.1"/>
		</g>
		<g>
			<g>
				<path fill="none"  stroke-width="0.75" stroke-miterlimit="10" d="M284.5,193.1c0,0,1.7,0.6,3.8,1.3"/>
				<path fill="none"  stroke-width="0.75" stroke-miterlimit="10" d="M292.2,195.4c1.6,0.3,3.1,0.5,4,0.2"/>
			</g>
		</g>
		<g>
			<g>
				<path fill="none"  stroke-width="0.75" stroke-miterlimit="10" d="M337.3,138.5l2.6,3.1l-1.3,0.9
					c-0.8-1-1.7-2-2.6-3.1"/>
				<path fill="none"  stroke-width="0.75" stroke-miterlimit="10" stroke-dasharray="7.7009,1.9252" d="M334.8,138
					c-20.4-23.3-52.7-47.6-88.7-72.1"/>
				<path fill="none"  stroke-width="0.75" stroke-miterlimit="10" d="M245.3,65.3c-1.1-0.7-2.2-1.5-3.3-2.2
					l1.3-2.2c1.1,0.7,2.2,1.5,3.3,2.2"/>
				<path fill="none"  stroke-width="0.75" stroke-miterlimit="10" stroke-dasharray="7.7611,1.9403" d="
					M248.2,64.2c20.3,14,48.3,35.7,76.9,59.7l11.6,13.9"/>
			</g>
		</g>
		<g>
			<g>
				<path fill="none"  stroke-width="0.75" stroke-miterlimit="10" d="M255.2,40.3c-2.1-1.4-3.3-2.2-3.3-2.2
					l-1.2,1.6c0,0,1.2,0.8,3.4,2.1"/>
				<path fill="none"  stroke-width="0.75" stroke-miterlimit="10" stroke-dasharray="8.2498,2.0624" d="
					M255.8,42.9c12.6,8,44.8,29,52.6,38.7c0,0,27.8,25.5,33.1,31.5c2.8,3.1,5.2,6.6,6.9,9.3"/>
				<path fill="none"  stroke-width="0.75" stroke-miterlimit="10" d="M348.9,123.3c1.3,2.1,2,3.5,2,3.5l0.8-1.7
					c0,0-0.9-1.2-2.5-3.2"/>
				<path fill="none"  stroke-width="0.75" stroke-miterlimit="10" stroke-dasharray="7.4193,1.8548" d="
					M348.1,120.5c-5.2-6.6-15-18.8-23.1-27.4c-6.6-7-5.9-6.3-4-4.4"/>
				<path fill="none"  stroke-width="0.75" stroke-miterlimit="10" d="M321.6,89.3c1.3,1.3,2.8,2.9,2.8,2.9
					s-1.2-0.9-3.1-2.5"/>
				<path fill="none"  stroke-width="0.75" stroke-miterlimit="10" stroke-dasharray="8.0521,2.013" d="M319.7,88.4
					c-9.7-7.9-31.7-25.7-37.1-29.6c-5.2-3.7-19.4-13.2-26.5-17.9"/>
			</g>
		</g>
		<g>
			<g>
				<path fill="none"  stroke-width="0.75" stroke-miterlimit="10" d="M282.4,30l-3.2-2.4c0,0,1.1,0.9,3.1,2.5"/>
				<path fill="none"  stroke-width="0.75" stroke-miterlimit="10" stroke-dasharray="7.8152,1.9538" d="
					M283.8,31.3c13.8,11.3,54.6,45.1,64.9,60.1c5.2,7.5,8.1,12.2,9.7,15.1"/>
				<path fill="none"  stroke-width="0.75" stroke-miterlimit="10" d="M358.9,107.3c1.7,3.2,1.5,3.7,1.5,3.7l0.8-1
					c-0.4-1.2-0.8-2.5-1.4-3.7"/>
				<path fill="none"  stroke-width="0.75" stroke-miterlimit="10" stroke-dasharray="7.8217,1.9554" d="M359,104.5
					c-12.5-24.9-57.9-60.6-57.9-60.6l-17.9-13.3"/>
			</g>
		</g>
	</g>
</g>
<g id="catcher-mitt_x5F_vw3_x5F_lce">
	<g>
		<path d="M114.7,306.7c0,0-1,6.3-4.3,10c0,0-6.8-9-9.5-8.3c-2.8,0.8-2.5,6.3-2.5,6.3l6,8.8l-3.3,3.3c0,0-1,7.5,5.4,6.3l3.4-3
			l4.8,7.3c4.1,0.5,6.9-0.1,8.8-1.5c0,0,1.3-3-1.5-4.8s-6.8-7.3-6.8-7.3l7.5-11C123.6,305.7,118.8,306.7,114.7,306.7z"/>
		<path d="M88.6,333.3c0,0,1.5,5.5,7.8,8.3l2,1.5c0,0-4,3.8-11.3-1.3l-4-8.5c0,0-4,1.8-7.5-7s-3.8-12,2.5-18.6c0,0,0.5-9.5-9.3-22.1
			l1.3-3.8c0,0,3.8,0,5.8,2s7.8,15.8,7.8,15.8s0.5,7.8,1.8,9c1.3,1.3,5,4.4,5,4.4l2,8.9C92.4,322.1,94.1,328.8,88.6,333.3z"/>
		<path d="M59.5,296.7v-3.5c0,0,7.8-3.3,8-4.5c0.3-1.3-4-4.5-4-4.5l-3.3-0.8l-5.5-7c0,0-2.8-4.5-3.5-7c-0.8-2.5,2.5-4.3,2.5-4.3
			l-8.8-7.8l1.8-4.8l-1.8-2.8c0,0-4.3-6.5-3.3-13.1c1-6.5-2.8-9.8-2.8-9.8h-2.3c0,0-9-23.1-10.3-23.8l-4.8,3v-2l-6.8,2.5l10.5,36.1
			L6.3,229.4c-4.5-1.1-7.8-1.2-3.8,5.5L29.6,261l5.4,8l3.4,7.8l3.8,1c0,0,2.5,4,5.3,4l7.5,16.3L59.5,296.7z"/>
		<path d="M27.4,193.5c0,0-7.5,4.3-7.8,9.5c-0.3,5.3-1.8-2.5-1.8-2.5v-7c0,0,2-5,9.5-10C27.4,183.5,32.1,189.8,27.4,193.5z"/>
		<path d="M29.5,170.7c0,0-8.7,5-9.7,7.5s-0.5-5.5,0-8.5s5.5-6.8,9.7-8S31.9,169.2,29.5,170.7z"/>
		<path d="M23.7,155.1c0,0,1.4-6.8,8.3-8.3c0,0,5.1-7.5,0-9.3S22.3,148,22.3,148S21.7,155.4,23.7,155.1z"/>
		<path d="M38.7,121.7c0,0-6.8,0-9.2,6.5c0,0,0.4-6.8,2.5-9.5c2.1-2.8,9.4-6,9.4-6S44.9,119.4,38.7,121.7z"/>
		<path d="M39.9,102.4c0,0,1-4.8,2.5-7.8c0,0,7-5.5,9.6-2.5c2.5,3-1.3,7-1.3,7S41.9,100.7,39.9,102.4z"/>
		<path d="M58.5,72.5c0,0,5.8-3,8.8-2S64.5,78,64.5,78l-10.3,2C54.2,80.1,55.8,73.7,58.5,72.5z"/>
		<path d="M71.8,61.7c0,0,1.5-5,7-6.5s6.3,3.3,6.3,3.3l-4,4.8L71.8,61.7z"/>
		<path d="M93.9,47.2c0,0,1.5-3.5,6.8-5.8l5,2.9l-5.9,5.1L93.9,47.2z"/>
		<path d="M113.7,38.7h7.5l5.5-2.5c0,0-1.5-3.3-6.5-2S113.7,38.7,113.7,38.7z"/>
		<path d="M58.2,109.2L70,94.1c0,0-0.8-5.8-1.9-5.8C67,88.4,57,102.4,57,102.4L58.2,109.2z"/>
		<path d="M82.6,80.1c0,0-1-8.3,14.6-15.1c0,0,1.3,3,0,4.3s-8.8,5.8-9,8.5L82.6,80.1z"/>
		<path d="M112.7,59.1c0,0,5.8-11.4,19.6-9.6l-2.8,4.7L112.7,59.1z"/>
		<path d="M158.6,45.4l12-4l6-5.2h-7.8l22.8-8.4l2,6c0,0,10.3,1.5,12.8-3.5v-5.8l-2.8-3l-7.8-2.8l-2.8,1.5c0,0-16.1,3.5-20.1,6
			s-9.5,3.8-9.5,3.8l-0.5,6.1c0,0-7.8,1.9-9.3,5.2s0,2,0,2L158.6,45.4z"/>
		<path d="M172.2,66.8v3.6c0,0-4,9.2,0,17c0,0-1.5,7.6-3.5,9.5s-12-16.5-2.3-28.3C167.7,66.9,169.6,66.2,172.2,66.8z"/>
		<path d="M242,37.4c0,0-4.8-5.3-12.8-1.1l-8.3-1.6c0,0,1-3,1.8-5.5s5.8-9.3,21.8-4.5l3.3,1.8c0,0,1,9.5,0,9
			C246.7,34.9,243.5,33.5,242,37.4z"/>
		<path d="M228.9,20.1l2.5-3.5l1.3-2.5c0,0-2,0-3.8-1.3s-6.5,3.6-6.5,3.6L228.9,20.1z"/>
		<path d="M243.2,46.9h-2.5c0,0,0.3-11-15.3-5.8s-13.1,4.3-13.1,4.3l-0.1,6.3c0,0,3.7,0.5,6.2,0s5-4.3,20.6,2.5L243.2,46.9z"/>
		<path d="M208.1,63.5c0,0,12.6-5.8,23.1-4.4l-1.5,8.7l3,1.8l-1.8,4h1.8c-1.6,12.3-5.3,24.1-10.3,35.4c0,0,0.8,1.8,2,1.8s-2,10-2,10
			l-6-1.3c0,0-4.5,6.8-11.5,3.5s-2.5-12.3-2.5-12.3l5.5-4.8l4.4-0.3l2.9-8.7c0,0-6-2.1-8.5-1.6s-5.8-8-1.8-10.3s10-6.5,16.1-7
			l2.8-5.3l2.5-6.2c0,0-8.7,2.5-9.4,3.7c-0.7,1.3-7.4-0.8-7.4-0.8L208.1,63.5z"/>
		<path d="M262.8,81.8c0,0-7.8-0.8-8.5,0c-0.8,0.8-4.8,18.7-2.3,21.4c-0.1,6.5,8.6,7,10.8,2.8c1.6-3.1,5.3-13.8,5.5-14.5
			s0-4.5,0-4.5h-3.5L262.8,81.8z"/>
		<path d="M298.2,106.2l-8.5-2.5l-2.3,2.5c0,0-4,0.8-3.3,7c0.8,6.3-2.8,8.3-2.8,8.3l-1.5,2.4c0,0-3.8,11.9,7,10.4
			c0,0,10.8-13.2,11.3-15.2s0-7.3,0-7.3L298.2,106.2L298.2,106.2z"/>
		<path d="M315.5,131.3c0,0-6,12.6-7.3,16.8c-1.3,4.3-3.3,1.5-2.3,7.5s9.5,1.3,9.5,1.3s7.5-11,8.3-17.1l1.3-8.5c0,0-4.8-5.3-7-5.3
			S315.5,131.3,315.5,131.3z"/>
		<path d="M224.9,121.2c3.8,1.7-4,13-10.8,19.1c-5.9,2.9,3.8,10.3,3.8,10.3s14.8-16.1,14.8-19.6S224.9,121.2,224.9,121.2z"/>
		<path d="M235.2,142.3c4.4,1.6-4.7,17-9.3,22.3c-3.7,2.2,4.6,9.3,4.6,9.3s14.7-18.1,13.7-23.3C243.2,145.3,235.2,142.3,235.2,142.3
			z"/>
		<path d="M262.6,170.7L245.7,184c0,0-2.5,7.5,4.3,6.8c6.8-0.8,18.1-13.3,19.6-13.1c1.5,0.3,0-3.8,0-3.8L262.6,170.7z"/>
		<path d="M283.1,180.7c0,0-13.1,13.5-18.1,14.5s5.2,7,5.2,7s18.2-15.3,19.7-15.3s0-3.8,0-3.8S287.4,179.3,283.1,180.7z"/>
		<path d="M325.1,172.7L310.2,185c0,0,2.5,4.5-3,9.8s-1.5,3-1.5,3l-4-3c0,0-3.5,0.7-5,3.5c0,0-9.8,0.3-13.1,9.3c0,0,1.6,5,5.2,5.8
			s11.6-2.3,12.1-3.5c0.5-1.3,8.8,2.3,8.8,2.3l-17.6,22.3l-1.6,5h3.3c0,0,17.3-21.6,18.6-22.8s-0.3-4.8,7.8-1.3l3.5-4.8
			c0,0,6.5,1.5,9-4.5l2.8-1.3l2.8-12l15.8-24.1l-4-1.8c0,0-12.6,20.3-13.8,21.1c-1.3,0.8,2-7.6,2-7.6L325,194.3l-7.5,10l-8.3-2
			C309.2,202.3,330.6,182.7,325.1,172.7z"/>
		<path d="M338.6,156.1l-4.8,5.5H330c0,0,0.7,5.6-3,9l5.8-3.8c-0.1,5.1-0.3,9.3-7.8,16.8c0,0,8.5-4,10.5-7.5l3-2.3
			c0,0,13.8-15.1,12.3-17.8c-1.5-2.8,10.3-2.8,11.3-9.8c0,0,14.3-7.5,12-30.6l-5.8,5.5c0,0,3.8,2.5,1,7.5c-2.8,5,0-2.8,0-2.8
			s-17.3-16.1-29.4-37.9l-11-13.1v-2c0,0-2-2.8-1.8-5.8c0.3-3-4.3-1.8-4.3-1.8s-2-5.3-10.5-4.5c0,0-20.1-16.6-28.9-25.6
			s-18.3-20.3-18.3-20.3l-7.3,2.8c0,0,16.3,21.3,33.6,36.4l8,7.6l1,5.8c0,0,1.3,4.3,3,7.8h4c0,0,4.5,5.3,7.6,3.8
			c0,0,2.6,3.3,6.9,3.5c4.3,0.3,11,12.5,11,12.5l24.6,31c0,0-3.5,1.3-7,9.9c0,0,4.8,10.2-0.3,17.4c0,0-1.3-7.7-2.8-11l-4.5,2.7
			l-3.8,8.5c0,0,2,4.3,0,9.5L338.6,156.1z"/>
		<path d="M192.8,12.6v3.7c0,0,3.8-2.3,4.8,1.2s13.8-5,13.8-5s-4.4-5.1,5.4-4.8c9.9,0.3,15.9,3.8,15.9,3.8l3.3-3.3
			c0,0-18.8-11.8-27.6-1.8l-5-4L200.9,1l-7.4,2.3l-0.8,3.3l-30.6,8.5l-13.9,6.5c0,0-22.6,8.9-24.3,8.6c-1.8-0.3,0,3.9,0,3.9l2.8,2.1
			c0,0,26.2-10.8,31-12.3l0.5,1.2l8.9-3.1v-1.9l11.6-3.7l0.7,3.7l6.9-2.9l-0.1-2.4L192.8,12.6"/>
		<path d="M192.8,12.6"/>
		<path d="M254.5,10.8l5.7-3c0,0,8.4,1.8,8.2,6.3l-7,1L254.5,10.8z"/>
		<path d="M269.3,16.3l3.8-3.7l8.3,3.7v2.5c0,0-3.3-0.3-4.8,1.3L269.3,16.3z"/>
		<path d="M291.7,29.1c0,0,3.7-3.4,6.7-2.5c5.1,1.5-4.9-6.5-6.7-6.5c0,0-4,1.3-6.8,4.5L291.7,29.1z"/>
		<path d="M307.7,39.7l5-3.6c1.8,0-3-7.5-6-7c-2.3,0.4-5.8,3.8-6.5,5.3L307.7,39.7z"/>
		<path d="M320.8,48.7l5.5-3.3c0,0-3-6.4-5.5-6.5c-4.3,0.8-4.6,3-5.4,4.9C314.6,45.5,320.8,48.7,320.8,48.7z"/>
		<path d="M327.3,54.2l3.5-5.5h3l4.8,4c0,0,0,3,0,4.3s-5.6,3-5.6,3l-6.7-4.8L327.3,54.2z"/>
		<path d="M339.9,65.5c0,0,2.5-3.5,2.3-5.5l3-1.1l5.8,6.6l-2.3,3l-3.3,2.8C345.4,71.3,342.1,70.8,339.9,65.5z"/>
		<path d="M350.9,77.1c-0.6,0.7,0.1,5.7,4.5,4.3c2.9-0.9,4.3-6.8,4.3-6.8l-4.4-4.3c0,0-1.9-1.5-4.4,0V77.1z"/>
		<path d="M359.7,79.6c0,0,4-1.5,6.8,4.8s0,6,0,6s4.5,0.8,4.5,7.5c0,6.8-5.6,7.3-5.6,7.3v-5.8c0,0,1.1-6.2,0-7.1s-2.9,0-2.9,0
			l-2.8-4.2c0,0,0-4.9,0-6.7C359.7,79.6,359.7,79.6,359.7,79.6z"/>
		<path d="M116.2,276.4c0,0,3-6.3,3-7.5c0-1.3-4.5-3.3-4.5-3.3l-9.8,10.8c0,0,0.8,3,3.8,3S116.2,276.4,116.2,276.4z"/>
	</g>
</g>
<g id="catcher-mitt_x5F_vw3_x5F_logo">
	<g>
		<path d="M146.3,311l8.5-10.5c17.3-0.5,33.4-2.7,46.7-5.2c15.3-4.2,20.3,21.8-30.1,35.2l-4.7,9.1l-16.8,1l17.8-30.2l16.3-2.2
			l-7,13.9c0,0,11.8-5.2,14.8-8.9c3-3.7,5.1-7.9-2.4-6.8C181.8,307.4,146.3,311,146.3,311z"/>
		<path d="M137.6,316.2c22.4-16.8,28.1,10.8,12.1,18l-9.2,2.5c-7,2.6-6.7-3.1-2.8-3.5c8-1.1,14.6-12.2,13.4-13.1
			c2.6-10.6-10.4-1.3-4.9,3.1c0,0,5.6,1.5-0.9,4.1C138.7,331.5,130,324.1,137.6,316.2z"/>
	</g>
</g>
<g id="catcher-mitt_x5F_open_x5F_back">
	<g>
		
			<image overflow="visible" width="747" height="702" xlink:href="./assets/images/nine-positions/overlay_images/9P_catcher_back_view.png"  transform="matrix(0.502 0 0 0.502 0 -0.6334)">
		</image>
	</g>
</g>

</svg>
