<?xml version="1.0" encoding="utf-8"?>
<!-- Generator: Adobe Illustrator 19.2.1, SVG Export Plug-In . SVG Version: 6.00 Build 0)  -->
<svg version="1.1" id="Layer_1" xmlns="http://www.w3.org/2000/svg" xmlns:xlink="http://www.w3.org/1999/xlink" x="0px" y="0px"
	 viewBox="0 0 350 333.2" enable-background="new 0 0 350 333.2" xml:space="preserve">
<g id="inf_dw_x5F_vw2_x5F_web">
	<g>
		<path d="M70.6,137.3L92,163c0,0,6.3-4.4,10.5-8.4c4.2-4.1,9.6-9.4,9.6-9.4s8.7-8.4,13.4-12.3c4.7-3.9,16.7-13.1,16.7-13.1l5.3-2.8
			l1-19.4c0,0-2.1-12.1-5-12.1c-2.8,0-9.2,3.2-9.2,3.2l-13.7,7.7c0,0-12.1,10.4-16.4,12.6c-4.3,2.3-9.2,6.3-9.2,6.3L70.6,137.3z"/>
		<path d="M147.7,56.4c0,0-18.4-1.9-32.2,8.3c0,0,3.7,27.4,5.3,31.6c0,0-14.9,12.6-19.1,14.8c0,0-0.6-3-2.4-9.4
			c-1.8-6.3-5.3-13.7-7.6-26l-10.5,8l8,17.9l5,14.6l-21.2,19.1L59,101.8l-7.8,7.7L35.4,92.9c0,0,3.6-10.5-16.6-13
			c0,0-1.9-2.7,4.5-7.8C29.8,67,41,56.3,41,56.3s2.8,1.4,3.2-2.6l9-5.4l2.1-2.3l8.7-4.8l4.7-3.3l8.3-3.5c0,0,1.9-0.1,3.2-1.8l9-4.1
			c0,0,4.1-1.8,6.5-3.6c2.4-1.8,8.6-1.8,8.6-1.8l5.4-1.4L139,20l9.6-0.8c0,0,2.4,3.2,0,9.8c0,0-3.9,5.3-2.3,9.4l2.3-0.8L147.7,56.4z
			"/>
	</g>
</g>
<g id="inf_dw_x5F_vw2_x5F_plm">
	<path d="M153.6,63.5c0,0,4.2,19.6,1.2,31.6c0,0-0.2,14.9-1.8,23.6s-5.2,14.8-5.2,14.8c-11.4,3.9-34.6,24.4-50.6,38.5l-43.1-59.3
		c-7.7-11.1-16.9-20.5-28.6-27.4c0,0-14.8-10.5-11.7,20.5c0,0,7.5,27.7,25.6,58.1s49.7,83.4,49.7,83.4s9-4.2,14.1,9
		c0,0,16.6,41.6,19,45.8c2.4,4.2,5.4,6.9,5.4,6.9s8.4,13.2,68.1,13.6c0,0,55.7-3.9,84.3-42.1c0,0,2.4-5.4,6.9-6.9l15.6-41
		c0,0,19.1-58,21.7-67.8c4.1-15.4,2.3-53-13.9-53c0,0-16.3,3-22,23.2L271,171.5c-5,12.4-9.2,23.6-15.6,28l12.1-24.4
		c0,0,11.5-24.7,14-34c4.1-8.4,9.3-30.7,9.3-30.7c0.2-2.2,0.5-6.1,1.4-10.7c4.4-20.3-24.6-55.6-35.9-18.2
		c-1.7,5.5-2.4,12.1-3.7,20.8l-7.6,25.6c0,0-12.3,33.1-14.6,37.4c-2.8,5.2-3.3-2.2-1.7-3.5c0,0,12.1-22.5,15.9-54.3
		c0,0,7.7-31.2,3.6-47.6c-4.9-19.3-36.7-34.2-41.9-13.9c0,0,1.4,31.9,2.6,46.7c0,0-3.5,31.9-10.4,41.9s-10.3,4.2-10.3,4.2
		s-1.5,1.2,4.5-31c0,0,3.3-35.8,3.6-41.9c0.3-6,0.8-18.9-1.5-24.7c-8-19.8-39.8-26.2-42.5-12.6C150.6,40.1,151.4,51.8,153.6,63.5z"
		/>
</g>
<g id="inf_dw_x5F_vw2_x5F_mid">
	<g>
		<path d="M170.8,18.8c0,0,9.6,3,13,5.4c0,0,2.6-0.9,4.7-0.9S176.2,17.1,170.8,18.8z"/>
		<path d="M226,35.5c0,0,9.8,3,13,6.3c0,0,5.1-3,7.4-0.8C246.3,41.1,227.1,29.3,226,35.5z"/>
		<path d="M284.6,68.2c0,0,6.2,4.4,7.7,9.8c0,0,5.7-0.5,8.1,1.2c0,0-8.4-10.3-10.8-11.9L284.6,68.2z"/>
		<path d="M324,118.6c0,0,3,5.1,3.5,7.4c0,0,10.7,0.1,13.2,5.1c0,0-1.8-5.9-7.7-12.1C333.1,119.1,327.2,117.3,324,118.6z"/>
		<path d="M9.5,94.4c0,0-0.9,2.5-0.9,6.3s1.8,7.4,1.8,7.4s-5.7-0.5-7.5,10c0,0-3.5-4.2,0.9-9.7c0,0-1.8-8.6,0.9-14L9.5,94.4
			L9.5,94.4z"/>
	</g>
</g>
<g id="inf_dw_x5F_vw2_x5F_bfg">
	<g>
		<path  d="M327.8,129.8c3.7,17.5,2.1,35.2-4.2,53.2l-22.1,62.5l-10.7,27.4c0,0,5.7,0.5,7.5,2.3c0,0-0.3-2.3,2.4-7.7
			c2.7-5.4,16.7-31.3,16.7-31.3s17.2-45.7,20-56.5c2.9-11,5-33.7,4.8-38.3C341.9,132.2,334.2,130.2,327.8,129.8z"/>
		<path  d="M328.4,115.7h-7.2l-6.5-4.5C314.7,111.2,323,110.8,328.4,115.7z"/>
		<path  d="M303.3,91.4c0,0-0.3-11.3-9.5-9.4l-1.3,0.5c6.6,16.4,0,38.1-7.9,61c0,0,7.3-23.7,21.2-30L303.3,91.4z"/>
		<path  d="M285.7,65.5c0,0-3.5-0.5-4.7,1l-8.6-3.6C272.4,62.9,276.9,59.7,285.7,65.5z"/>
		<path  d="M242.9,44.8c0,0,5.2-9.2,13.6,12.1l1.3,7.4c2.8,13-8.1,46.9-8.1,46.9l-7.7,25.3l-9.6,24.4l6.6-21.2
			c0,0,13.5-48.9,15.4-73.2C255,59.1,247.1,46.4,242.9,44.8z"/>
		<path  d="M223.8,32c0,0-8-0.5-10.1,1.9l8.7,1.3L223.8,32z"/>
		<path  d="M203.4,52.8c1.8-0.5-2.7-22-9.5-25.3c-5.5-2.7-7.5-0.6-7.5-0.6s16.9,10.8,12.5,27.6L203.4,52.8z"/>
		<path  d="M204.1,71.5c0,0-0.4,31.6-5.1,44l-3.3,18.7c0,0,3.6-4.7,5.6-15.5c1.9-10.8,6.8-40.5,5.6-45.2
			c0,0,1.2,2.1,1.2,9.4s-0.6,17.6-1.8,23c-1.2,5.4-6.2,22.1-7.8,25.8c-1.7,3.6-4.4,7.4-4.4,7.4s-4.1,1.8-4.4-2.6
			c-0.3-4.4,6.5-38.7,6.6-45.2c0.1-6.5,0.9-24.7,0.9-24.7L204.1,71.5z"/>
		<path  d="M148.8,40.9c0,0,1.4,13.9,1.9,16.6c3.2,15.2,4.8,34.3,0.8,56.5c-4,22-5.6,16.5-5.6,16.5l2.1-13.9
			c0,0,1.9-25.9,1.5-28.6c-0.5-2.7,0.2-26.2-1.8-31.6L148.8,40.9z"/>
		<path  d="M196.5,134.1l2.5-16c0,0,4.3-22.9,5.2-46.4c2-23.3-2.1-34-2.1-34c-8.4-16.2-14.8-11.2-14.8-11.2
			s13.6,8.8,12.2,27.1c-1.4,18.3-2.5,35.9-3.5,46.5s-3.7,33.9-3.7,33.9C193.1,136.8,194.3,138,196.5,134.1z"/>
		<path  d="M148,49.4c0,0,2.3,4.3,3.4,12.6c0.5,4.1,3.8,8.2,2,24.7s-0.2,20.4-1.1,24.5c-0.9,4.2-2.5,16.2-5.6,19.9
			l0.9-13l0.5-30.3C152.1,75.6,148.6,59.8,148,49.4z"/>
		<path  d="M10.4,108.1c0,0-16.6,5.1,0.6,30.1c21.9,46.5,46.6,83,70.1,125.3l9.9-8.7C91,254.7,9.2,113.4,10.4,108.1z"
			/>
	</g>
</g>
<g id="inf_dw_x5F_vw2_x5F_wlt">
	<g>
		<path  d="M17.6,84.2c0,0-7.5,8.8-3.6,22.4s1.4,7.9,5.9,18.7S47,175.7,47,175.7l22.6,39.5c0,0,16,27.6,20.8,32.5
			l-4.1,4.1c0.5-2.8-19.2-34.3-21.5-37.3l-32.1-54c0,0-12.6-23.7-17.2-35s-5.2-15.1-5.2-15.1s-5.6-14.7,3.4-25.1L17.6,84.2z"/>
		<path  d="M309.5,112.7c0,0,13.3-3.4,15.8,28.7c0,0,1.8,21.5-9.5,49.7c0,0-10.6,34.3-13.1,40.2s-13.6,36.8-13.6,36.8
			s-1.1,3.2-3.4,6.1l6.1-1.4l4.5-14c0,0,6.1-13.8,11.5-28.5l10.4-30.7c6.9-17.2,9-22.8,12.6-51c0,0,0.1-28.7-12.9-36
			C318,112.6,313.3,108.2,309.5,112.7z"/>
		<path  d="M266.3,65.7c0,0,5.6-6.3,14.2,0s9.2,4.7,14.2,19.2c4.9,14.1,0,27.6,0,27.6l-10.6,32.3
			c0,0-18.8,42.2-22.9,47.7s-5.1,6.6-5.1,6.6s18.7-37.3,21.5-47.4c2.7-10.2,10.6-28.9,12.2-38.2c1.6-9.3,4.7-24.4-4.1-37.9
			C276.9,61.9,266.3,65.7,266.3,65.7z"/>
		<path  d="M229.5,166.4c0,0-3.8,1.8,0-6.8c3.8-8.6,11.7-24.6,16.3-59.6c0,0,11.7-41.1-4.3-51.5
			c-7-10.8-30.7-16.9-33.7-6.1c0,0-2,5.6-1.4,8.8l-2.3,0.9c0,0-1.8-22.1,18.1-17.6s26.2,15.1,26.2,15.1s8.7,11.2,5,26.2
			c-3.9,15.9-8.6,45.4-8.6,45.4S233.6,157.4,229.5,166.4z"/>
		<path  d="M150.7,120.6c0,0-2.2,6.1-5,10.3c-3.8,5.8,2,3.9,5,0c0,0,3.2-9.9,2.7-13.7s1.1-6.6,1.1-6.6s2-5.2,0.9-10.4
			s0.4-14,0.4-14s1.7-7,0-16.9S152,42.9,152,39.5s0.9-12.2,0.9-12.2c5.2-11.1,34.8-4.3,41.3,13.3c4.1,13.8,1.6,32.8,1.6,32.8
			s-4.7,50.1-7.2,57.6c-2.5,7.5,1.6,9.8,1.6,9.8s4.7,3.2,8.8-6.8s8.8-31.4,8.8-31.4s2.5-16.3,0-28.7c0,0,0.1,25.3-3.7,36.8
			c-3.8,11.5-7.6,23.5-7.6,23.5c-4.6,7-6.2,5.3-6.1-1.4c0,0,7.5-34.3,7.5-52.2c1.1-17.7,1.1-35,1.1-35c0.9-7.5-16.5-31.5-37.3-26
			c0,0-14.7,1.8-12.9,21c1.8,19.2,3.2,23.9,3.2,23.9s2.5,10.6,1.8,17.2c-0.7,6.6-0.5,15.4-0.9,19.7c-0.5,4.3,1.1,5.6-1.8,12.9
			L150.7,120.6z"/>
		<polygon  points="183.7,24.2 188.4,23.3 191.7,26.4 186.4,26.9 		"/>
		<path  d="M327.5,126c0,0,11.4,1.1,13.2,5.1c1.9,4,1.5,8.2,1.5,8.2s-2.9-10.2-14.4-9.5L327.5,126z"/>
		<polygon  points="222.4,35.2 223.8,32 229.3,33.6 226,35.5 		"/>
		<polygon  points="289.6,67.3 285.7,65.5 280.5,65.7 285.3,69 		"/>
		<path  d="M239,41.8c0,0,4.1-2.4,7.4-0.8c3.3,1.7,4,4.5,4,4.5s-4-4.5-7.4-0.8L239,41.8z"/>
		<path  d="M292.3,78l1.5,4c0,0,8.2-1.9,9.5,9.4c0,0,2.5-8.3-2.7-12.1C294.9,75.1,292.3,78,292.3,78z"/>
		<path  d="M328.4,115.7l4.7,3.3c0,0-5.5-2.2-9-0.4l-2.8-2.9H328.4z"/>
	</g>
</g>
<g id="inf_dw_x5F_vw2_x5F_bnd">
	<path d="M95,279.1c0,0-1.2-1.8-1.8-3.3c-0.6-1.5-7.5-14.5-7.5-14.5c-4.1-13.4,10.8-21.4,16.9-6.6l3.5,9l1.4,3.2l2.6,7.7
		c0,0,2.3,4.7,2.6,7.5c0,0,6.2,16.3,10.4,20.9s16.7,19,52.2,19c0,0,22.9,3.9,42.1-3.3c0,0,29.4-6.9,44.7-20
		c15.4-13.1,19-19.6,19-19.6c1.7-6.5,22.7-9.8,15.5,2.6l-8.9,8.2l-5.6,7.2c0,0-2.7,5.7-6.3,5.7l-6.8,5.3c0,0-3.6,6.2-7.4,6l-7.8,4.8
		l-6.3,4.1c0,0-3.6,0.1-4.8,0.9s-7.7,2.8-7.7,2.8s-7.2,5.6-8.7,5.9s-4.4,0.1-4.4,0.1l-0.6-5.6l3.3-4.1l-11.9,3.3
		c0,0-2.1,0.9-9.5,1.5c-7.4,0.6-11.2,0.6-11.2,0.6l-10.5-0.3l-11.6-1l-10.3-0.9l-9.2-2.8c0,0-7.1,1.2-15.5-3.6
		c-8.4-4.8-11-5.9-11-5.9l-2.6-0.9c0,0-5.6,2.7-7.4,0.5c-1.8-2.3-10.5-10.8-10.5-10.8l-1-3c0,0-4.7-7.2-5.9-12.2
		C95.2,282.6,95,279.1,95,279.1z"/>
</g>
<g id="inf_dw_x5F_vw2_x5F_stch">
	<g>
		<g>
			<path fill="none"  stroke-miterlimit="10" stroke-dasharray="8,2" d="M298,275.2c0,0-0.6-0.4-1.6-0.8"/>
			<path fill="none"  stroke-miterlimit="10" stroke-dasharray="8,2" d="M295.5,274.1c-3.5-1.2-10-2.1-15,5.5
				c-7.2,10.8-32.5,28.1-37.9,30.7c-5.4,2.6-39.3,14.9-57.7,13c-18.4-1.9-22.7-1.8-43.1-6.6c0,0-17.8-6.5-20.8-19.3l-19.3-44.6
				c0,0-16.5-12.6-16.8,4.7"/>
			<path fill="none"  stroke-miterlimit="10" stroke-dasharray="8,2" d="M85,257.9c0,0.6,0,1.2,0,1.8"/>
		</g>
	</g>
	<g>
		<g>
			<path fill="none"  stroke-miterlimit="10" stroke-dasharray="8,2" d="M143.7,102.2c0,0-0.6,0.1-1.8,0.4"/>
			<path fill="none"  stroke-miterlimit="10" stroke-dasharray="8,2" d="M141,102.9c-2.8,0.9-7.4,3-13,7.8
				c-9,7.7-13.7,12.8-19.4,15.7l-24.2,21.2"/>
			<polyline fill="none"  stroke-miterlimit="10" stroke-dasharray="8,2" points="84,147.9 82.7,149 80.4,147.2 
				81.8,146.1 			"/>
			<path fill="none"  stroke-miterlimit="10" stroke-dasharray="8,2" d="M82.5,145.6l9.6-7.6c0,0,4.1-3,7.2-5.7
				c3.2-2.7,4.2-5.9,13.9-10.8c0,0,10.7-8.3,14.5-11.9c0,0,7.3-7.1,15.1-9.1"/>
			<path fill="none"  stroke-miterlimit="10" stroke-dasharray="8,2" d="M143.2,100.2c0.1,0,0.3,0,0.5-0.1h1.4
				l-0.3,1.8"/>
			<polyline fill="none"  stroke-miterlimit="10" stroke-dasharray="8,2" points="144.6,102.5 144.6,102.8 
				144.2,105.1 			"/>
			<path fill="none"  stroke-miterlimit="10" stroke-dasharray="8,2" d="M144.1,105.4l-0.3,1.8
				c-0.5,0.2-1.1,0.4-1.7,0.7"/>
			<path fill="none"  stroke-miterlimit="10" stroke-dasharray="8,2" d="M141.3,108.2c-13.1,6.1-34,25.5-54.9,45"/>
			<path fill="none"  stroke-miterlimit="10" stroke-dasharray="8,2" d="M86.1,153.5c-0.5,0.4-0.9,0.8-1.3,1.2
				l-0.9-2.4c0,0,0.5-0.4,1.4-1.2"/>
			<path fill="none"  stroke-miterlimit="10" stroke-dasharray="8,2" d="M85.9,150.5c8.7-7.7,42.9-37.8,53-43.6"/>
			<path fill="none"  stroke-miterlimit="10" stroke-dasharray="8,2" d="M139.3,106.7c0.7-0.4,1.3-0.6,1.7-0.7"/>
		</g>
	</g>
	<g>
		<g>
			<path fill="none"  stroke-miterlimit="10" stroke-dasharray="8,2" d="M114,65.5c0,0,0.1,0.7,0.3,1.8"/>
			<path fill="none"  stroke-miterlimit="10" stroke-dasharray="8,2" d="M114.4,68.1c0.9,6,3.3,20.5,4.7,26.2"/>
			<path fill="none"  stroke-miterlimit="10" stroke-dasharray="8,2" d="M119.2,94.8c0.2,0.9,0.4,1.4,0.5,1.7"/>
		</g>
	</g>
	<g>
		<g>
			<path fill="none"  stroke-miterlimit="10" stroke-dasharray="8,2" d="M96.4,73.1c0,0,0.1,0.7,0.4,1.8"/>
			<path fill="none"  stroke-miterlimit="10" stroke-dasharray="8,2" d="M97,75.8c1,4.4,3.2,13.2,5.4,18.9
				c1.8,4.7,3,8.4,3.6,10.5"/>
			<path fill="none"  stroke-miterlimit="10" stroke-dasharray="8,2" d="M106.1,105.6c0.3,1.1,0.5,1.8,0.5,1.8"/>
		</g>
	</g>
	<g>
		<g>
			<path fill="none"  stroke-miterlimit="10" stroke-dasharray="8,2" d="M80.4,86.2c0,0,0.3,0.6,0.7,1.7"/>
			<path fill="none"  stroke-miterlimit="10" stroke-dasharray="8,2" d="M81.5,88.8c2.4,5.8,8.3,20.1,10.3,25.8"/>
			<path fill="none"  stroke-miterlimit="10" stroke-dasharray="8,2" d="M91.8,115.1c0.3,0.8,0.4,1.4,0.5,1.8"/>
		</g>
	</g>
	<g>
		<g>
			<line fill="none"  stroke-miterlimit="10" stroke-dasharray="8,2" x1="63.6" y1="98.9" x2="64.2" y2="100.6"/>
			<line fill="none"  stroke-miterlimit="10" stroke-dasharray="8,2" x1="64.6" y1="101.4" x2="75.5" y2="128.9"/>
			<line fill="none"  stroke-miterlimit="10" stroke-dasharray="8,2" x1="75.7" y1="129.3" x2="76.3" y2="131"/>
		</g>
	</g>
	<g>
		<g>
			<path fill="none"  stroke-miterlimit="10" stroke-dasharray="8,2" d="M126.6,39.3c0,0-0.6,0-1.8,0.1"/>
			<path fill="none"  stroke-miterlimit="10" stroke-dasharray="8,2" d="M123.9,39.4c-7.3,0.5-27.5,2.5-36.9,10.7
				c0,0-9.9,5.6-23.5,16.3c0,0-17.3,16.2-21.5,25.1"/>
			<path fill="none"  stroke-miterlimit="10" stroke-dasharray="8,2" d="M41.8,91.9c-0.3,0.6-0.5,1.2-0.6,1.7h1.4
				c0,0,0.4-0.5,1-1.4"/>
			<path fill="none"  stroke-miterlimit="10" stroke-dasharray="8,2" d="M44.2,91.4c5-6.7,20.6-27,32.1-31.4
				c0,0,15-9.8,17.5-11.3c2.4-1.5,19.3-8.9,47-9.5l2.4,1.8"/>
			<path fill="none"  stroke-miterlimit="10" stroke-dasharray="8,2" d="M143.6,41.3l1.4,1.1v2.3c0,0-0.7,0-1.8,0.1
				"/>
			<path fill="none"  stroke-miterlimit="10" stroke-dasharray="8,2" d="M142.3,44.9c-5.6,0.5-18.1,1.8-21.7,3.7
				c-4.7,2.4-10.4,3.5-10.4,3.5S89.3,57.4,80.4,68c0,0-10.5,6.9-21.8,18.2c-6.8,6.8-10.5,10.5-12.4,12.3"/>
			<path fill="none"  stroke-miterlimit="10" stroke-dasharray="8,2" d="M45.9,98.8c-0.9,0.9-1.3,1.3-1.3,1.3
				l-1.8-2.8c0,0,0.5-0.5,1.3-1.3"/>
			<path fill="none"  stroke-miterlimit="10" stroke-dasharray="8,2" d="M44.7,95.3c4.9-5,18-18.3,23.9-22.1
				c7.2-4.8,11.9-9.5,11.9-9.5s23.4-19.6,61-20.9"/>
			<path fill="none"  stroke-miterlimit="10" stroke-dasharray="8,2" d="M141.9,42.8c0.6,0,1.2,0,1.8,0"/>
		</g>
	</g>
</g>
<g id="inf_dw_x5F_vw2_x5F_lce">
	<g>
		<path d="M23.5,72.6l1.9-1c0,0,3.9-6.6,15.5,9.8c0,0,0.1,2.6,1.8,3.2s3.6-8.9,3.6-8.9v-7c0,0-0.8-7.1-5.6-12.1l-2.8-1l-5.4,3.6
			l-0.6,2.7c0,0-2.8,0-3.5,0.9c-0.6,0.9-4.2,5.3-4.2,5.3S22.6,70.6,23.5,72.6z"/>
		<path d="M44,53.9c0,0,8,5.5,5.4,16.1c0,0-0.5,2.5,0.5,3.7l6.9-3.7c2.5-13.8-0.4-21.1-7.5-23l-5.3,3.2C44,50.1,42.6,52.7,44,53.9z"
			/>
		<path d="M64,41.2c0,0,6.9,10.4,2.3,21.2c0,0-6.6,2.3-8.6,2.4v-3.9c0,0,3.8-7.4-3-14.9v-2.7c0,0,5-2.6,5.7-3.5
			C60.4,39.9,62.3,40.2,64,41.2z"/>
		<path d="M75,31.9c0,0-3.2,1.5-5.4,2.4c-2.3,0.9-1.7,3.9-1.7,3.9s3.8,7.2,1.3,16.1l-1.3,3.3c0,0,5.8-2.4,7.6-2.1
			C77.3,55.8,84,42,75,31.9z"/>
		<path d="M79.6,31.9c0,0,3.4,12.3,0,16.9c-3.4,4.5-0.4,0.8-0.4,0.8s-0.3,1.9,1.9,1.5c2.2-0.4,7.1-2.2,7.1-2.2S93.8,43.4,89,28
			c0,0-2.1-2.6-3.6-1.9c-1.5,0.6-4.5,2.6-5.8,2.6L79.6,31.9L79.6,31.9z"/>
		<path d="M101.1,42.3c0,0-5.7,3-7.8,3.3C91.1,45.9,91,43,91,43s5.9-5.6,3.6-16.4l1-4.4l7.1-1.7C104.2,20.6,105.9,35.5,101.1,42.3z"
			/>
		<path d="M112.9,18.2h6.8l2.7-0.9l6-0.6c0,0,1,0.1,1.8,0.8l7.5-0.8c0,0,4.1,2.8,0.6,21.8l-7.7,0.6l-0.6-2.3c0,0,1.5-14-0.1-16.3
			c-1.7-2.3-6.9,19.3-6.9,19.3l-7-1.4c0,0-0.3-2.2,0.3-5.4c0.6-3.2-4.4,7.7-4.4,7.7h-7.8c0,0-3.6-1.2,0-3.3c0,0,4-12.1,5.2-14.5
			C110.7,20.6,111.4,18.2,112.9,18.2z"/>
		<path d="M156.2,20.6h-6.5c0,0-0.9,7.5-1,8.9l-3,2.7l0.6,4.8c0,0,2.8,3.1,11.7,1.5l1.9,19.5c0,0,3.7,5.6,8,0c0,0-1-19.6-1.7-23.5
			l-1.2,1.2c0,0,1-4.7-5.1-6.9l-7.5-0.4C152.4,28.4,152.6,21.8,156.2,20.6z"/>
		<path d="M165.5,122.3c0,0-3,0.5-3.7,1.4c-0.7,0.9-2.4-2.6-2.4-2.6l2.1-17.5c0,0,3.5-2.8,6.5,0c3,2.8,0,0.8,0,0.8
			S167.5,117,165.5,122.3z"/>
		<path d="M182.6,39.4c0,0-1,8.1-1.7,9.6l6.9,9.9c0,0-0.9,0.9-4.7,0l-2.3,2.6c0,0,2.4,3.5,3.5,6.2c1,2.7,10.5-2.3,10.5-2.3
			s14.3,8.6,20.2,11c0,0,3.7,1,5.3-4.7l-2.4-3.2c0,0-9.8-3.9-13-6.2c0,0,10.1-4.2,12.3-7.2c2.3-3-2.4-5.6-2.4-5.6l-3.6-0.3
			c0,0-7.8,5-13,5.3l-12.3-14.1L182.6,39.4z"/>
		<path d="M133.4,160.5c0,0-1.9,5.2,1.9,6.1c0,0,11-6.6,14-11.5l-0.9-6.2h-3.2L133.4,160.5z"/>
		<path d="M117.8,173.3c0,0,3.6-2.1,3.5,5.6c0,0-10.4,8.9-12.8,9.6c-2.4,0.8-3.9-6-3.9-6S102.1,182.2,117.8,173.3z"/>
		<path d="M233.9,55.7c0,0-5.7,2.8-2.8,14.9l2.8,7.7H232l1.9,7.7l5.1,1.4c0,0,9.9,13.7,20.6,15.5c0,0,3.3-4.1,4.5-3
			c0,0,0.8-4.1-1.7-4.8c-2.4-0.8-8.6-4.5-12.5-8.3l11.3-0.6c0,0,4.7-0.1,6.9-3.9s-2.4-6.8-2.4-6.8h-1.9c0,0-14.1,1.9-19.9,0.5
			l-5-15.4C239,60.5,238.2,56.9,233.9,55.7z"/>
		<path d="M278,92.7l-5.4,7.1c0,0-9.5,27.2,15,44.4c0,0,3.3,2.4,3.2-5.1c0,0-9.2-7.1-9.2-13.7c0,0,13.1,6.5,19.3,5.4
			c0,0,2.3-1.4,3-5.3c0.8-3.9-3.7-4.7-3.7-4.7s-13.3-1.5-21.4-9.4c0,0-3-9,1.9-15.4C280.7,96.2,281.8,94.4,278,92.7z"/>
		<path d="M298.3,156.3c0,0-21.8,22.3-11,30.7c0,0-17,9.8-12.2,24.4c0,0-14.8,7.2-12.2,20.6c2.6,13.4,5.7-2.3,5.7-2.3
			s6.6-11.9,10.4-16.4c0,0,1.8-14.6,9.9-22.5l2.1-10.7c0,0,3.3-11.9,9-16.3C300.1,163.9,300.3,159.1,298.3,156.3z"/>
		<path d="M261.4,194.1v6.2c0,0-5.7,9.6-6.8,13.1C254.7,213.3,247.6,207.8,261.4,194.1z"/>
		<path d="M245.4,227.6c-6.8,3.6-7.4,11.9-5.7,21.8c0,0-2.7,11.7,5,23.9c0,0-6,9.4,7.1,21.5c0,0-4.8,13.6,2.7,23.6l1,1.8l5.6-3.7
			v-2.7c0,0-4.2-3-3.9-16.9l-1.2-4.2c0,0-7.6-10.8-6-18.8l-1.5-7.8c0,0-3.6-11.9-3.2-17c0.5-5.1,0.8-11.3,1.9-15.5
			C248.5,229.5,245.4,227.6,245.4,227.6z"/>
		<path d="M268.9,289.9c0,0-2.1,8.1,6.3,13.4c-0.2,2.8-1.5,4.7-4.5,5.4c-4.1,0.3-12-14.8-8.3-21.1
			C264.6,283.9,269.2,286.8,268.9,289.9z"/>
		<path d="M278.6,277c0,0,1.5,0.1,1.9,2.7c0.5,2.6,3.7,5,9.6,4.5s5,0,5,0s-1.5,3.7-6.9,6c0,0,2.4,1-5.3,7c0,0-12.8-3.1-11.9-18.7
			C271.1,278.6,273.3,269.3,278.6,277z"/>
		<path d="M242.5,303.9c0,0-2.1,16.9,0,20.9c0,0-2.1,3.5-6.2,4.1c-4.1,0.6-0.8-23.4-0.8-23.4l2.8-2.4c0,0-8.9-2.1-13.2-16.1
			l-2.8-1.1l-15.4-10.2l-1.4-1l-16.4-5c0,0-6-3.3,0-6.2c0,0,9.5,1.2,19.4,5.9c9.9,4.7,17.8,10.8,17.8,10.8l2.4,3.2l14.6,19.3
			L242.5,303.9z"/>
		<path d="M186.4,285.6c0,0,8.9-1.2,23,3.7c0,0,4.4,4.7-1.2,6.8c0,0-12.6-4.1-19.1-3.9C189.2,292.2,183.8,289.4,186.4,285.6z"/>
		<path d="M148.9,272.4c0,0-4.8,2.4-1.7,6.8c0,0,10.1,2.2,14.6,6.3c0,0,6.6,0.6,3-5.7C164.9,279.7,155.4,272.4,148.9,272.4z"/>
		<path d="M156.1,254.8c0,0-4.3,2.8,0.8,5.3c5.1,2.4,10.8,4.2,10.8,4.2h2.7c0,0,4.5,1.8,1.8-3.9
			C172.3,260.3,163.4,254.6,156.1,254.8z"/>
		<path d="M130.9,239.5c0,0,8.9,9.9,9.5,10.5s3.3,1.2,3.3,1.2s0.8-11.3-13.9-14.3L130.9,239.5z"/>
		<path d="M122.1,238.8c0,0,14.9,9.2,9.5,22.6c0,0-2.3,0.1-3.2-1.8c-0.9-1.9-5.1-13-7.7-16.3C118.2,240,122.1,238.8,122.1,238.8z"/>
		<path d="M129.2,129.9l-0.9,6.3l6,4.5l-4.2,4.4l-3.9-2.8c0,0-3.3,4.1-3.5,9l-6.5,4.8c0,0,0.1-6.9,4.4-17L129.2,129.9z"/>
		<path d="M96.5,159.4l8.4,5.3l-5.1,5l-5-3.3c0,0,4.4,5.8,0,8.8c0,0-10.4-13.2-12.8-14.6c-2.4-1.4,0-7.2,0-7.2s3.2,0.9,10.9,8.6
			L96.5,159.4z"/>
		<path d="M97.4,98.4l-3.6,6.5h-3l3.3,11.2l6.9-6.6v-2.2C101.1,107.3,98.3,99.2,97.4,98.4z"/>
		<path d="M14.6,84.5l6.1-5c0,0,11.3-0.3,15.4,11.2l-1.2,1c0,0,28.3,22.3,16.5,27.7l-5-3.9c0,0-8.9-14-16.1-16l-2.7-3.5l-3.3-7.4
			c0,0-1-1.8,0.6-3.2C24.8,85.3,24.4,83.1,14.6,84.5z"/>
		<path d="M9.9,88.5c0,0-5.4,6.5-6.5,12.2S0,94.6,0,94.6s0.1-7.1,5-7.8L9.9,88.5z"/>
		<polygon points="11,138.2 8.4,143 23.8,164.3 		"/>
		<path d="M42.1,127.5l2.1,6.9c0,0,14.6,17,17.2,25.8c0,0,1,2.6,3.5,2.8c2.4,0.3,12.3,16.4,13.1,20.6c0.8,4.2,4.2,4.9,4.2,4.9
			s9.4,7.8,13.6,17.1c0,0,6.7-9.8-14.8-24.1c0,0-1.8-17.2-15.4-22.7l-3.9-3.3C61.8,155.5,64.6,141.4,42.1,127.5z"/>
		<path d="M81.2,265.7l-10.7-14.5c-4.7-7.1-8.6-4.1-5.1,2.6l11.2,18.5c0,0-16.9-11.2-20.2-12.7l-0.9,2.2c0,0,17.6,13.7,22.1,17.1
			c0,0-0.6,13.5,7.1,13.9c0,0,0.8,6.4,16.3,4.9l-2.7-5.1l-1.5-4.5c0,0,13.5,3.9,23.2,1.2l2.1-3c0,0-2-3-2.1-4.8c0-1.8-3-0.5-3-0.5
			s-9.5,5-20.9-1.4l-3.9-3.9c0,0,17.6,0.6,22.5-5c0,0-0.6-4.4-1-6.4h-2.6c0,0-7.5,3.8-17.3,4.4c0,0,12.8-2.2,14-8.3
			c0.1-0.8-1.7-9.4-2.6-10.5c-0.9-1.2-2.3,2.3-2.3,2.3s3.7,6.7-17.9,9l-1.8-2.6C83,258.8,80.5,261.2,81.2,265.7z"/>
		<path d="M102.2,299.5c0,0,0.9,5.3,6.3,5.4c5.4,0.1,11.3,0.3,16.6-4.4c0,0,2.3-1.2,2.7-2.5c0.5-1.4,4.4,2.5,3.9,5
			c-0.5,2.4-8.4,9.8-22.1,7.2l5.7,4.1c0,0,15.8,2.4,25.2-6.9l1.7-1.2c0,0,6.9,1.7,5.1,5.3s-17.8,12.6-28.3,7.2l-10.3-8.9
			c0,0,0.9,6.9,2.4,10.6c0,0-0.8,1.6-2.4,2.4c-1.7,0.8-5.4-4.8-6.5-18.5L102.2,299.5L102.2,299.5z"/>
		<path d="M161.9,313c0,0-6.5,10.3-14.3,11.3l-2.3-0.8c0,0,0.5,3.3,9.5,5.3c0,0,10.5-5.3,13-11.2C170.2,311.8,161.9,313,161.9,313z"
			/>
		<path d="M226.5,312.9c0,0-1,11.2-4.8,14.3c0,0-5.1,0.6-7.7,0.9c-2.6,0.3-2.9-0.9-2.9-0.9s5.7-0.8,7.7-12.6
			C218.8,314.5,220.9,308.7,226.5,312.9z"/>
		<path d="M198.4,317.1c0,0-2,8.9-6.6,11.7h-2.1c0,0,0.8,3.4,10.4,2.5c0,0,6.3-5,6.6-15C206.8,316.3,202.1,308.3,198.4,317.1z"/>
		<path d="M187.2,315.3l-4.4-1.5c0,0-1.2-1.2-3.6,3.3s-5.9,9.5-8.7,10.4h-3.6c0,0-0.1,2.3,6.6,3.2l3.5,0.9c0,0,4.3-1.2,9.4-12.3
			C186.4,319.2,187.8,319.5,187.2,315.3z"/>
		<path d="M335.7,121.9c0,0-8.8-8.8-12.2-9.5c-3.4-0.7-6.6-1.4-6.6-1.4s4.7-9.5,12.6-7.2c7.9,2.3,6.1,5,6.1,5s2.3,1.8,3.2,5
			C339.7,117,335.7,121.9,335.7,121.9z"/>
		<path d="M304,91.9c0,0,2.8-11.1-14-23.3l-1.4-1.6c0,0,8.8,3.8,16.5,12.4c7.7,8.6,3,22.4-1.2,21.7C299.7,100.5,304,91.9,304,91.9z"
			/>
		<path d="M249.5,44.2l3.7,6.1l2.3,3.6C255.5,53.9,255.3,42.7,249.5,44.2z"/>
		<path d="M186.4,21.2c15.1,3.4,14.4,13.7,14.4,13.7l-4.7-5.2L190,25L186.4,21.2z"/>
		<path display="none" d="M107.5,260.6c0,0,1.9,2.7,4.1,7.2c2.1,4.5,5,11.1,5,11.1s-1,3.1,0,5.3s6.3,9,6.3,9
			l-3.7,5.6c0,0-3.6-2.7-4.8-8c-1.2-5.4-2.4-10.7-2.4-10.7s-3.7-11.6-6.4-17.8L107.5,260.6z"/>
	</g>
</g>
<g id="inf_dw_x5F_dwelt_x5F_inside">
	
		<image overflow="visible" enable-background="new    " width="775" height="738" xlink:href="./assets/images/nine-positions/overlay_images/9P_infield_dwelt_pocket.png"  transform="matrix(0.4515 0 0 0.4515 0.1128 0)">
	</image>
</g>
</svg>
