<?xml version="1.0" encoding="utf-8"?>
<!-- Generator: Adobe Illustrator 19.2.1, SVG Export Plug-In . SVG Version: 6.00 Build 0)  -->
<svg version="1.1" id="Layer_1" xmlns="http://www.w3.org/2000/svg" xmlns:xlink="http://www.w3.org/1999/xlink" x="0px" y="0px"
	 viewBox="0 0 293.8 350.5" enable-background="new 0 0 293.8 350.5" xml:space="preserve">
<g id="inf_dw_x5F_vw1_x5F_plm">
	<path d="M46.3,260.6c0,0-14.7-29.3-29.7-35.2c0,0-10.3-29.3-11.5-44s5.5-21.8,5.5-21.8l14.6-14.1c0,0,7.2,7.5,16,14.3
		c8.7,6.7,47.4,37.9,68.5,48.4l6.7,6c0,0-14.7,17-16.6,18.6c-2,1.6-5.9,5.1-5.9,5.1C78.3,252.7,62.5,260.9,46.3,260.6z"/>
	<path d="M187.8,117.8l-11.6,31c0,0-24.5,18.1-27.6,22.8l-27.7-20.3c0,0,28-36.9,47-46L187.8,117.8z"/>
</g>
<g id="inf_dw_x5F_vw1_x5F_bfg">
	<g>
		<path d="M47.1,260.6l-0.5,2.4c0,0,14.2,15.2,20.5,16.6c0,0,7.5-5.1,8.1-5.1c0.6,0,26.3-12.3,34.1-18.4s42-35.8,42-35.8l42.8-37.4
			l5.7,4.4l13.7-19.4l36.2-30.7c0,0,22.2-19,23.6-24.4c1.4-5.3,1.6-7.5,1.6-7.5s-10.9-7.3-17.4-6.1c-6.5,1.2-19.6,4.6-19.6,4.6
			l-4.4,2.6l-35.2,25.9l-24.6,18.4c0,0-21.4,17.2-24,20.2L111.1,217l-7.3,10.3c0,0-4.9,8.1-9.5,9.1C82,250.6,66.3,258.7,47.1,260.6z
			"/>
		<path d="M291.3,124.9c0,0,4.4,11.9-1.2,23.4c-5.5,11.5-21,35.2-30.5,44.2l-21.2,26.1l-29.9,35.8c0,0-5.1,8.9-8.7,12.3
			s-8.3,8.1-8.3,8.1s-14.1-9.1-2.6-27.9s24.9-29.9,24.9-29.9l21.8-24.9c0,0,15.2-11.1,22.2-23.8c0,0,21.6-20,26.5-27.7
			C289.3,132.9,291.3,124.9,291.3,124.9z"/>
		<path d="M107.7,11.9l-12.3,8.3l-18.6,15L42,68.9c0,0-29.7,29.3-32.5,45.9c0,0-12.3,26.9-7.1,58.6S9.9,217,9.9,217s4,7.1,7.1,8.7
			c0,0-7.5-60.7-5.5-67.2c2-6.5,10.3-16,10.3-16l31.3-49.1l25.3-27.3l13.5-17.8l-6.7-3.6c0,0-6.7-9.4,2-15.4s22.6-15.8,22.6-15.8
			L107.7,11.9z"/>
	</g>
</g>
<g id="inf_dw_x5F_vw1_x5F_mid">
	<path d="M64.6,280c0,0,57.8,51.7,48.9,63.8c0,0,12.7-2,19.4-7.3c6.7-5.3,17.6-14.7,20-18.8c2.4-4.2,33.7-39.2,33.7-39.2l-1.4-3.6
		c0,0-9.7-14.1,1.4-30.3s28.5-35,28.5-35s28.7-29.9,29.5-30.7c0.8-0.8,33.5-34.6,33.5-34.6s12.4-13.1,13.2-19.2
		c0.8-6.1-6.1-13.7-17.4-18c0,0-11.9,17.8-24.7,28.2s-39.8,33.4-39.8,33.4l-38.8,32.1l-34.8,31.1l-18.2,16c0,0-27.7,20.4-40.6,25.3
		L64.6,280z"/>
</g>
<g id="inf_dw_x5F_vw1_x5F_wlt">
	<g>
		<path d="M272.4,104.1c0,0,2.4,6.1-11.3,17.6c0,0-17.6,17.2-24.2,22l-16.8,14.1l-30.5,25.9l-32.5,28.5l-26.9,24.4
			c0,0-32.7,30.7-56.6,37l-7.9,5.3l1.1,2.8l8.4-6c29.9-13.9,45-26.2,56.4-36.6l34.8-29.9l29.7-25.5l33.7-28.5c0,0,27.3-21.6,35-30.5
			c7.7-8.9,9.7-10.1,11.5-17.8C276.4,106.9,275,103.9,272.4,104.1z"/>
		<path d="M290.9,124.1c0,0-1,7.9-9.1,16.2c-8.1,8.3-22.6,21-22.6,21l-27.3,30.1l-15.2,17.8l-8.3,9.3c0,0-9.5,11.1-11.9,13.7
			c-2.4,2.6-7.9,9.5-10.5,15.6c-2.6,6.1-7.5,16.2,0,26.9l2.6-2.4c0,0-11.5-13.9,5.9-33.9S215,215,215,215l20.2-22.7
			c0,0,15.8-12.4,21.4-22.1l5.9-6.9c0,0,26.7-25.1,28.3-29.5C292.4,129.5,290.9,124.1,290.9,124.1z"/>
	</g>
</g>
<g id="inf_dw_x5F_vw1_x5F_web">
	<g>
		<path d="M120.4,2c0,0-7.9,3.2-10.7,12.3l-11.9,7.5c0,0-13.9,5.5-15.4,17c0,0-0.4,4.4,3.6,6.3c4,2,6.3,2.8,6.3,2.8
			S58.6,92.7,54.6,95.4l-11.9-9.9c0,0-2.4-3.2-7.1-3.2s-11.5,18.2-11.5,18.2h-2.4c0,0-2.8,7.9-5.9,10.7c-3.2,2.8-4.4,9.5-4.4,9.5
			l11.9,19l-0.4-8.3l5.9-4c0,0,5.5,10.7,5.1,18.6l3.2,2.7L99.8,202c0,0,21.4,13.5,23.4,15l23.8-33.3l6.3-8.5L122,150.9
			c0,0,18.2-26.5,45.9-45.5c0,0,26.1,15.8,33.7,27.3l32.9-27.3l7.5-8.7l9.9-7.1v-2.8l-10.3-9.1l-62.2-47.1l-35.2-23l-14.7-6.7h-4.4
			L120.4,2z"/>
		<path d="M124.3,94.6c0,0-17.8,18.2-25.3,28.1L85.1,120l28.1-38.8L124.3,94.6z"/>
	</g>
</g>
<g id="inf_dw_x5F_vw1_x5F_wst">
	<path d="M46.6,262.9c-0.1,1.6,5.2,5.3,17,15.8c19.4,18.8,27.7,22.8,29.7,27.3c0,0,17.8,16,22.2,38c-20.6,4.8-50.3,2.3-61.4-9.7
		l-5.6-8.5l-19.4-45.4C39.2,280.9,44.8,275.1,46.6,262.9z"/>
</g>
<g id="inf_dw_x5F_vw1_x5F_stch">
	<path fill="none"  stroke-miterlimit="10" stroke-dasharray="8,1" d="M44.5,273.6c0,0,9.3,8.9,13.5,11.3
		c4.2,2.4,6.5,6.9,6.5,6.9l23,22.4c0,0,11.1,11.1,18.6,29.5"/>
	<path fill="none"  stroke-miterlimit="10" stroke-dasharray="8,1" d="M54.8,333c7.7,15.8,56,18.4,80.2,2.4"/>
	<path fill="none"  stroke-miterlimit="10" stroke-dasharray="8,1" d="M46.5,268.3c0,0,8.4,8.7,19.2,15.6
		c19.8,19.6,49.2,48,47.7,58.4"/>
	<path fill="none"  stroke-miterlimit="10" stroke-dasharray="8,1" d="M16.8,225.3c0,0,13.3,7.5,26.3,27.9"/>
	<path fill="none"  stroke-miterlimit="10" stroke-dasharray="8,1" d="M44.5,254c12.9,1.6,27.2-5.8,40.4-14.8
		c-43,2.5-66.7-22.7-78-62.4c0,0,4.2,28.5,9.9,46.3"/>
	<path fill="none"  stroke-miterlimit="10" stroke-dasharray="8,1" d="M6.9,172.5c10,43.4,36.2,68.1,83.2,63.8
		c0,0-21.6,21.8-44.2,20.4"/>
	<path fill="none"  stroke-miterlimit="10" stroke-dasharray="8,1" d="M23.4,109.1c0,0,11.5,24.2,33.3,38.2
		c21.8,14.1,17.2,14.1,17.2,14.1s18,17.6,34.3,27.3s19.8,11.7,19.8,11.7l7.7-10.1l-1.8-4.2l-22.8-15.8"/>
	<polyline fill="none"  stroke-miterlimit="10" stroke-dasharray="8,1" points="109.9,175.2 134.4,191.9 130,197.7 
		111.1,186.5 104.7,184.5 	"/>
	<path fill="none"  stroke-miterlimit="10" stroke-dasharray="8,1" d="M168.5,95.2c-29.9,25.1-57.1,49.4-67.1,81.6"
		/>
	<path fill="none"  stroke-miterlimit="10" stroke-dasharray="8,1" d="M81,157.8c0,0,13.5-33.7,45.3-60.6"/>
	<path fill="none"  stroke-miterlimit="10" stroke-dasharray="8,1" d="M107.9,79.6c0,0-20.4,26.9-23,29.5
		c-2.6,2.6-15.4,17-15.4,17S60.4,136,59,139.8"/>
	<path fill="none"  stroke-miterlimit="10" stroke-dasharray="8,1" d="M117.8,28.7c0,0-10.1,6.9-20.2,19.2
		S63,91.5,62.8,92.1C62.6,92.7,43.2,114.6,40,122"/>
	<path fill="none"  stroke-miterlimit="10" stroke-dasharray="8,1" d="M27.1,103L38.6,114l-11.5-12.3l2-2.2
		c0,0,8.1,10.3,10.9,12.1"/>
	<path fill="none"  stroke-miterlimit="10" stroke-dasharray="8,1" d="M110.3,31.1l-10.9-7.9l9.7-5.5
		c0,0,18.8,4.2,37.8,23c0,0,4.2,5.9,18.2,15s25.1,23,25.1,23s23.2,12.7,34.8,26.3l-8.7,9.1l-30.7-22.6l2-3.2l30.9,21.4"/>
	<path fill="none"  stroke-miterlimit="10" stroke-dasharray="8,1" d="M135.6,34.6c0.6-0.8,7.5,6.1,9.9,11.3
		c2.1,4.6,9.7,7.7,9.7,7.7s10.1,3.4,21.4,14.3s13.7,13.9,19,17.4c5.3,3.6,23,15,27.1,20.4"/>
	<line fill="none"  stroke-miterlimit="10" stroke-dasharray="8,1" x1="67.3" y1="142" x2="78.9" y2="150.5"/>
	<line fill="none"  stroke-miterlimit="10" stroke-dasharray="8,1" x1="68.9" y1="139.8" x2="81" y2="147.7"/>
</g>
<g id="inf_dw_x5F_vw1_x5F_bnd">
	<path d="M54.8,333.4c11.9,17,62,17.3,80.6,1.4v5.1c-12.3,8.3-60.4,19.2-80.6-3.3V333.4z"/>
	<path d="M10.7,216c0,0-0.8,4.8,8.3,10.3S44.4,255,44.4,255s4.6,12.9-1.2,19.4s-7.3,6.5-7.3,6.5l-5.5-2c0,0-9.5-8.9,0.4-17.8
		l8.3-4.9c0,0-8.3-17-22-27.1l-7.9-8.3C8.6,218.7,9.2,217.2,10.7,216z"/>
	<path d="M253,96l2.4,2.6c0,0,12.1-0.8,19.2,6.5c0,0,9.1,4.9,11.9,7.9v-2.8c0,0-13.1-11.9-21-14.3C257.6,93.7,253,96,253,96z"/>
	<path d="M22.8,149.3c0,0-5.7,1.2-12.5,11.5L8.1,162c0,0,4.6-11.3,11.3-16.4L22.8,149.3z"/>
	<path d="M114,214.4c0,0-10.7,11.9-11.9,16.8l-3,1.8h-1.4c0,0,0-2.4,3.6-8.1c3.6-5.7,11.5-12.1,11.5-12.1L114,214.4z"/>
</g>
<g id="inf_dw_x5F_vw1_x5F_lce">
	<path d="M6.9,114H3.2v7.9c0,0,1.6,5.1,8.3,12.3S30,154.8,30,154.8s-10.1,3.2-13.4,8s-1.7,3.6-1.7,3.6l3.4,4.8h3.6l6.3-6.7
		c0,0,1.2,21,4.4,25.7s6.5-0.9,6.5-0.9v-4.3c0,0-2.2-8.7-2-13.9c0,0,4.2,2.2,8.9,1.4c4.8-0.8,1.2,0,1.2,0l5.1,4.4H59l11.3,17
		c0,0-10.6,3.8-14.9,6.5l5.3,9.1c0,0,10.6-7.3,15.5-7.9c0,0,0.6,15.2,4.8,20.8c0,0,5.9,1.6,9.1,0v-4c0,0-2.2-4.6-3-6.3
		c-0.8-1.8,15,13.3,15,13.3l7.5,5.7l4.9-4.4v-2.8l-25.9-24.4c0,0,6.1-2.9,11.5,0l3.5-0.7c0,0,3.9-2.8,1.1-5.3
		c-2.8-2.6-3.4-2.8-3.4-2.8s-5.5-1.9-16.6-1.5l-3.8-14l-7.4-8.1l-3.6-0.2l-1.2-2c0,0-3.2-1.6-5.3-4.6c0,0-2.2-1.6-6.7,1.2l-6.3-1.4
		l-0.8-4l3.4-0.2c0,0,2-3.4-3-8.3c0,0-7.9-0.3-11.9,1.1l-3.8-3.1c0,0-1.4-11.9-5.1-16.8c-1.5-2.4-3.2-1.6-4.9,1.2l0.8,7.1
		c0,0-15.7-15.2-16.9-19.2C6.9,114,6.9,114,6.9,114z"/>
	<path d="M73.1,93.9c0,0-4.2,8.5,1.8,23l-12.2-5.3h-1c0,0-4.4,5.5-4.9,7.3c0,0,8.7,6.1,21.2,9.9c0,0,10.9,21.4,17.2,24.7
		c6.3,3.4,6.9-4.6,6.9-4.6l-2-5.1l-9.1-11.5l18.6,2c0,0,3.6-0.2,4.9-2.4c1.4-2.2,2.6-6.7,0-6.9c-1.8-0.2-27.9-3.6-28.2-4.7
		c0,0-7.8-15.1-4.4-23l-3.1-4.9C77.3,91.8,75.4,92.4,73.1,93.9z"/>
	<path d="M97.2,65.9l-6.9,6c0,0-0.4,5.5,6.9,5.9c0,0-1.2-0.4,4.2,0c5.3,0.4,10.9,1.8,10.9,1.8L126.3,96c0,0,4.8,7.1,4.2,12.9
		c0,0,10.3,1.2,9.9-3.2c-0.4-4.4-3.2-14.7-9.9-20.4l24.6,6.7l4-3.6l2-0.2l40.4,29.5l7.9-6.9v-2.1l-57.8-41.9l1.2-3.4l-5.7-7.5
		l-6.7,1.6c0,0-9.1-3.6-13.9-1.6c0,0-34.8-41.8-36-43c-1.2-1.2-5.1-3.6-5.1-3.6l-6.3,6.9c0,0,23.5,30.3,25.9,32.5
		c2.4,2.2,0,5.7,0,5.7l3.2,12.3L97.2,65.9z"/>
	<path d="M167.7,118.8l-3-2.6l-2.5,2.6c0,0-8.2,14.3-12.2,17.2c-4,3-3.2,5.9-3.2,5.9l-11.3,18.5l5.4,4.3c0,0,10.1-15.8,10.7-21
		l16-20.6C167.7,123.2,168.1,120.8,167.7,118.8z"/>
	<path d="M135,341.5c-0.4,7,2.1,5.8,5.3,2.2c0,0,8.1-13.9,9.1-24.2l2-5.3l9.5,5.3l2.8-2.4l2.4,0.4l6.5-9.9h1.6l5.1-3v-2.5l-3.5-1.5
		l8.6-10.2l5.9,1.6l3.2-1.6l17.2-7.3l-1.6-3.6l-8.9,2.6c0,0,0-1.6-3-2.6l5.3-8.5c0,0,4-2.6,6.3-8.1c0,0-2.6-5.7-0.6-7.9l-8.9,12.3
		l-6.5,1l-1.4,1.4c0,0-23,20.4-26.5,22.6c0,0-1.8-3.2-4-3.8c-2.2-0.6-9.9,12.5-9.9,12.5l1.2,3.7l-3.6,2.8c0,0-10.9,2-12.3,25.5
		L135,341.5z"/>
	<path d="M179.3,238.4c0,0,15.3-4.8,22.6-22.4l2,1l6.7,0.5c0,0,4.2-1.9,5.7-7c1.6-5.1,1.4-5.7,1.4-5.7v-2.4l43.4-38.6l-6.3-5.9h-2
		l-3-3.1c0,0-3,2.1-6.7,7.8c-3.8,5.7-18.4,19.2-18.4,19.2l-2.4,4.7l-7.3,3.8h-2.6c0,0-5.1,3.4-6.7,4.8s0.2,5.3,0.2,5.3l-6.3,7.5
		c0,0-26.1,19-38.6,38l-2.2,4.2l7.1,4L179.3,238.4z"/>
	<path d="M250.1,92.1l6.9,8.5c0,0,15.4,1.6,11.3,10.9c-4.2,9.3-12.3,11.7-12.3,11.7l-4.2-0.4l-24.1,28.7c0,0-28.1,34.2-27.5,35
		c0.5,0.8-9.4-7.5-9.4-7.5c15.4-20.6,30.6-39.3,41.6-51.5c0,0,7.5-8.9,9.3-9.7s-3-2-1.4-6.1c1.6-4.2,3.2-6.3,3.2-6.3s-3.3-4-6.2-3.4
		C234,102.7,248.2,90.9,250.1,92.1z"/>
	<path d="M243.7,73.7c0,0-0.7,4.9-7,10.9c-6.3,5.9-11.6,10.7-11.6,10.7s-9.3-5.1-9.5-6.9s17.6-17.6,17.6-17.6s-3.6-3.2-8.1-0.5
		c-4.6,2.7-15.8,12-15.8,12s-4.4,1.2-9.3-5.9c0,0,6.5-9.1,19.8-15.6l4.1-1.1l7.6,5c0,0,2,1.2,2.6,3.4l3.8,0.2L243.7,73.7z"/>
	<path d="M217.7,59.5c-5.2-7.6-19.5,4.5-19.5,5.4c-2.5,2-4.9,3.1-7.3,3.2c-2.4-0.7-4.4-2.3-5.3-6.1c1.7-6.8,9.7-9.7,16.1-13.7
		c0,0-1-2.8-5.8-2.2c-4.8,0.6-16.5,8.9-16.5,8.9l-2.7,0.8c0,0-5.5-4.6-5.5-7.3c0-2.8,15.6-13.7,22.4-11.5l8.7,6.1c0,0,1,1.8,0.8,3.6
		l4.9,0.6l6.5,5.1C214.4,52.4,217.8,53.5,217.7,59.5z"/>
	<path d="M187.6,36.7l-1.7-0.9c-4.7-4.4-19.3,3.8-20.4,6.7c-1,2.9-4.8,1.6-4.8,1.6c-3.4-0.8-4.9-3.2-5.3-6.5c0,0,1.6-8.5,15.6-12.6
		c0,0-8.1-2.9-17.8,6.6c0,0-3.3,2.8-6.3,0.8c-4.7-3-3.8-5.1-2.8-4.9c0,0,1-7.1,14.9-11.9c0,0-9.2-3.2-14.9,2s-7.1,5.7-7.1,5.7
		l-1.4,0.2c-0.9,0.2-5.5-1.3-4-3.8c1.1-1.9,6.1-9.7,12.5-12.3c0,0-7.9-1.2-12.5,4.4s-3.6,5.7-3.6,5.7l-3.8,0.8l-1.4-2.8
		c0,0-5.3,4.6-6.7-0.8s8.3-12.5,8.3-12.5s5.7-2,9.9-2c4.2,0,6.1,2,6.1,2s5.5,1.6,8.7,4.4l5.7,2.8c0,0,4,1.4,6.1,4.8l5.7,2.4l7.1,5.7
		l1.4,2.3l3.8,1.2c0,0,3.4,2.8,6.1,4.2C188.1,31.3,187.6,36.7,187.6,36.7z"/>
	<path d="M133.4,202.5c0,0-6.3,6-7.1,10c0,0,5.3,0.5,5.3,0.9c0,0.4,1.8,4.4,1.8,4.4s4.2,0.6,6.5,3.2l3.4-1.8h5.9
		c0,0,2.5-3.2,2.5-8.9c-0.1-5.7-0.9-4.6-0.9-4.6l5.3-18v-1.2l4.8-4.8c0,0-0.4-4-5.9-4.9c-5.5-1-3.3,0-3.3,0l-4.8,5.5l-6.1,22.4h-3.6
		L133.4,202.5z"/>
</g>
<g id="inf_dw_x5F_vw1_x5F_logo">
	<path d="M30.9,285.5c0,0,6.2,3.6,8.9,3.6c10.1,6.3,16.2,25.7,7.9,28.1l2.8,8.7h-2l-12.1-26.5l0.4-3.2l-3.4-3.2l-2.6-4.6V285.5z"/>
</g>
<g id="inf_dw_x5F_dwelt_x5F_side">
	
	<image overflow="visible" enable-background="new    " width="742" height="885" xlink:href="./assets/images/nine-positions/overlay_images/9P_infield_dwelt_side.png"  transform="matrix(0.396 0 0 0.396 0 0)">
	</image>
</g>
</svg>
